<mxfile host="app.diagrams.net" agent="Mozilla/5.0 (Macintosh; Intel Mac OS X 10_15_7) AppleWebKit/537.36 (KHTML, like Gecko) Chrome/139.0.0.0 Safari/537.36" version="28.2.0">
  <diagram name="Page-1" id="YPKPpMM0ROmh5dz6Bpro">
    <mxGraphModel dx="2393" dy="2224" grid="1" gridSize="10" guides="1" tooltips="1" connect="1" arrows="1" fold="1" page="1" pageScale="1" pageWidth="827" pageHeight="1169" math="0" shadow="0">
      <root>
        <mxCell id="0" />
        <mxCell id="1" parent="0" />
        <mxCell id="i0-r0BhkWRjA8PmNq9u2-18" value="Environnements AYOR" style="rounded=1;whiteSpace=wrap;html=1;strokeColor=#07838f;fillColor=#dafdf5;arcSize=24;absoluteArcSize=1;imageWidth=64;imageHeight=64;strokeWidth=1.5;verticalAlign=top;fontSize=15;fontStyle=1" parent="1" vertex="1">
          <mxGeometry x="369" y="30" width="350" height="640" as="geometry" />
        </mxCell>
        <mxCell id="i0-r0BhkWRjA8PmNq9u2-19" value="" style="rounded=1;whiteSpace=wrap;html=1;strokeColor=#07838f;fillColor=#FFFFFF;arcSize=24;absoluteArcSize=1;imageWidth=64;imageHeight=64;strokeWidth=1.5;" parent="1" vertex="1">
          <mxGeometry x="369" y="70" width="350" height="750" as="geometry" />
        </mxCell>
        <mxCell id="i0-r0BhkWRjA8PmNq9u2-2" value="" style="group;arcSize=24;movable=1;resizable=1;rotatable=1;deletable=1;editable=1;locked=0;connectable=1;" parent="1" vertex="1" connectable="0">
          <mxGeometry x="-80" y="30" width="690" height="790" as="geometry" />
        </mxCell>
        <mxCell id="i0-r0BhkWRjA8PmNq9u2-3" value="&lt;p style=&quot;line-height: 100%; font-size: 15px;&quot;&gt;&lt;/p&gt;&lt;h1 style=&quot;font-size: 15px;&quot;&gt;&lt;b style=&quot;font-size: 15px;&quot;&gt;GLOBAL ACCOUNT&lt;/b&gt;&lt;/h1&gt;&lt;p style=&quot;font-size: 15px;&quot;&gt;&lt;/p&gt;" style="rounded=1;whiteSpace=wrap;html=1;strokeColor=#0070F2;fillColor=#EBF8FF;arcSize=24;absoluteArcSize=1;imageWidth=64;imageHeight=64;strokeWidth=1.5;verticalAlign=top;fontSize=15;" parent="i0-r0BhkWRjA8PmNq9u2-2" vertex="1">
          <mxGeometry width="378.56" height="790" as="geometry" />
        </mxCell>
        <mxCell id="i0-r0BhkWRjA8PmNq9u2-34" value="&lt;font face=&quot;arial&quot; style=&quot;color: rgb(29, 45, 62); text-wrap-mode: nowrap; font-size: 16px;&quot;&gt;&lt;b&gt;SubAccount DEV&lt;/b&gt;&lt;/font&gt;" style="rounded=1;whiteSpace=wrap;html=1;strokeColor=#0070F2;strokeWidth=1.5;arcSize=24;fillColor=#FFFFFF;perimeterSpacing=0;absoluteArcSize=1;verticalAlign=top;align=left;spacingTop=0;spacingLeft=7;" parent="i0-r0BhkWRjA8PmNq9u2-2" vertex="1">
          <mxGeometry x="19.31" y="58" width="200.69" height="203.17" as="geometry" />
        </mxCell>
        <mxCell id="i0-r0BhkWRjA8PmNq9u2-4" value="" style="shape=image;verticalLabelPosition=bottom;labelBackgroundColor=default;verticalAlign=top;aspect=fixed;imageAspect=0;image=data:image/svg+xml,PHN2ZyB4bWxuczp4bGluaz0iaHR0cDovL3d3dy53My5vcmcvMTk5OS94bGluayIgeG1sbnM9Imh0dHA6Ly93d3cudzMub3JnLzIwMDAvc3ZnIiB2aWV3Qm94PSIwIDAgMTQ0Ljc0NyAzOS44MzIiIGlkPSJhIj48ZGVmcz48bGluZWFyR3JhZGllbnQgZ3JhZGllbnRVbml0cz0idXNlclNwYWNlT25Vc2UiIHkyPSIzOS44MzIiIHgyPSI0MC4yNTgiIHkxPSIwIiB4MT0iNDAuMjU4IiBpZD0iYiI+PHN0b3Agc3RvcC1jb2xvcj0iIzAwYjhmMSIgb2Zmc2V0PSIwIi8+PHN0b3Agc3RvcC1jb2xvcj0iIzAwYjVlZiIgb2Zmc2V0PSIuMDE2Ii8+PHN0b3Agc3RvcC1jb2xvcj0iIzBkOTBkOCIgb2Zmc2V0PSIuMzA4Ii8+PHN0b3Agc3RvcC1jb2xvcj0iIzE2NzVjOCIgb2Zmc2V0PSIuNTc4Ii8+PHN0b3Agc3RvcC1jb2xvcj0iIzFjNjRiZSIgb2Zmc2V0PSIuODE3Ii8+PHN0b3Agc3RvcC1jb2xvcj0iIzFlNWZiYiIgb2Zmc2V0PSIxIi8+PC9saW5lYXJHcmFkaWVudD48L2RlZnM+PHBvbHlsaW5lIGZpbGwtcnVsZT0iZXZlbm9kZCIgZmlsbD0idXJsKCNiKSIgcG9pbnRzPSIwIDM5LjgzMiA0MC42OTIgMzkuODMyIDgwLjUxNyAwIDAgMCAwIDM5LjgzMiIvPjxwYXRoIGZpbGwtcnVsZT0iZXZlbm9kZCIgZmlsbD0iI2ZmZiIgZD0ibTQ3Ljc4Miw3LjQ4OWwtNy45MjUtLjAwNXYxOC44NDVsLTYuOTI0LTE4Ljg0NWgtNi44NjVsLTUuOTEyLDE1Ljc1OWMtLjYzLTMuOTczLTQuNzQtNS4zNDUtNy45NzQtNi4zNzQtMi4xMzUtLjY4Ni00LjQwMS0xLjY5NC00LjM4LTIuODA5LjAxNy0uOTE1LDEuMjE1LTEuNzY1LDMuNTg5LTEuNjM3LDEuNTk1LjA4NCwzLjAwMS4yMTMsNS44LDEuNTYzbDIuNzUzLTQuNzk1Yy0yLjU1NS0xLjMtNi4wODYtMi4xMjEtOC45NzgtMi4xMjRoLS4wMTdjLTMuMzc0LDAtNi4xODUsMS4wOTMtNy45MjgsMi44OTQtMS4yMTQsMS4yNTgtMS44NjksMi44NTYtMS44OTYsNC42MjMtLjA0NCwyLjQzMi44NDgsNC4xNTcsMi43MjEsNS41MzMsMS41ODMsMS4xNiwzLjYwNiwxLjkxMiw1LjM5LDIuNDY1LDIuMjAxLjY4MSwzLjk5NiwxLjI3NCwzLjk3NSwyLjUzOS0uMDE2LjQ1OS0uMTkxLjg4OC0uNTIxLDEuMjM2LS41NDguNTY2LTEuMzkxLjc3OS0yLjU1NS43OTktMi4yNDQuMDQ4LTMuOTEtLjMwMy02LjU2Mi0xLjg3bC0yLjQ0OCw0Ljg2MWMyLjY0NCwxLjUwNiw1Ljc3NiwyLjM4OCw4Ljk3MiwyLjM4OGwuNDExLS4wMDZjMi43ODItLjA1LDUuMDI2LS44NDIsNi44Mi0yLjI4Ni4xMDMtLjA4MS4xOTYtLjE2Ni4yOTEtLjI1bC0uNzk1LDIuMTIzaDcuMmwxLjIwOC0zLjY3NGMxLjI2NS40MzMsMi43MDQuNjcxLDQuMjMyLjY3MSwxLjQ4NywwLDIuODg5LS4yMjksNC4xMzEtLjYzNWwxLjE2NCwzLjYzN2gxMS43NDJ2LTcuNjA3aDIuNTYxYzYuMTg4LDAsOS44NTEtMy4xNTQsOS44NTEtOC40MzYsMC01Ljg4NS0zLjU1Ny04LjU4NS0xMS4xMzItOC41ODVabS0xOC4zMTcsMTYuMTI0Yy0uOTI1LDAtMS43OTItLjE2LTIuNTM5LS40NDNsMi41MTItNy45MjZoLjA0OGwyLjQ2OCw3Ljk0OGMtLjc0Mi4yNjMtMS41ODkuNDIxLTIuNDg4LjQyMVptMTguNzgzLTQuNTUzaC0xLjc0NnYtNi4zODZoMS43NDZjMi4zMjgsMCw0LjE4NS43NzMsNC4xODUsMy4xNTEsMCwyLjQ2MS0xLjg1NywzLjIzNi00LjE4NSwzLjIzNiIvPjxwYXRoIGZpbGw9IiMwMDJhODYiIGQ9Im04MC4yMTcsNy40MDFoMTAuMDYzYzUuNTk1LDAsOC42NzQsMS45MTcsOC42NzQsNi4xNTgsMCwyLjkwMy0xLjUxMyw1LjAxNC00LjMxMSw1LjcsMy4yOS40NTgsNS4yNzgsMi41ODYsNS4yNzgsNS44OTQsMCw1LjAxNC00LjA2NCw3LjAzNy05LjE4NCw3LjAzN2gtMTAuNTIxVjcuNDAxWm0xMy45NjksNi44MjZjMC0yLjE2NC0xLjQ5Ni0yLjk3My00LjI0LTIuOTczaC01LjA0OXY2LjI5OGg0Ljg5MWMzLjIwMiwwLDQuMzk4LTEuMTYxLDQuMzk4LTMuMzI1Wm0xLjAyMSwxMC41MjFjMC0yLjM1Ny0xLjc3Ny0zLjQ2Ni00LjgzOS0zLjQ2NmgtNS40NzF2Ny4wNTVoNS41MDZjMi44MTUsMCw0LjgwNC0uNzc0LDQuODA0LTMuNTg5WiIvPjxwYXRoIGZpbGw9IiMwMDJhODYiIGQ9Im0xMDkuMDUxLDExLjVoLTcuNTgzdi00LjA5OWgxOS44NDZ2NC4wOTloLTcuNTY1djIwLjY5aC00LjY5N1YxMS41WiIvPjxwYXRoIGZpbGw9IiMwMDJhODYiIGQ9Im0xMjUuMTQ4LDcuNDAxaDEwLjUwNGM2LjE5MiwwLDkuMDk2LDMuMTg1LDkuMDk2LDcuODk5LDAsNC4zOTgtMi44MzMsOC4xNDYtOC44NSw4LjE0NmgtNi4wN3Y4Ljc0NGgtNC42OFY3LjQwMVptMTQuOTAyLDcuOTUyYzAtMi41NTEtMS42ODktMy45MjMtNC45NDQtMy45MjNoLTUuMjc4djguMDRoNS40MTljMy4yNzIsMCw0LjgwNC0xLjU4Myw0LjgwNC00LjExN1oiLz48L3N2Zz4=;strokeWidth=1.5;" parent="i0-r0BhkWRjA8PmNq9u2-2" vertex="1">
          <mxGeometry x="17.579548755070842" y="18.823529411764707" width="70.89897033336732" height="19.555265572433477" as="geometry" />
        </mxCell>
        <mxCell id="i0-r0BhkWRjA8PmNq9u2-51" value="SAP Connectivity&#xa;Service" style="shape=image;verticalLabelPosition=bottom;verticalAlign=top;imageAspect=0;aspect=fixed;image=data:image/svg+xml,PHN2ZyB4bWxucz0iaHR0cDovL3d3dy53My5vcmcvMjAwMC9zdmciIGZpbGw9Im5vbmUiIHZpZXdCb3g9IjAgMCAxNiAxNiIgaGVpZ2h0PSIxNiIgd2lkdGg9IjE2Ij4mI3hhOzxjaXJjbGUgc3Ryb2tlLXdpZHRoPSIwLjI4NTcwOCIgc3Ryb2tlPSIjRDVEQUREIiBmaWxsPSJ1cmwoI3BhaW50MF9saW5lYXJfMzUxNF80MDIwMikiIHI9IjcuODU2OTYiIGN5PSI3Ljk5OTA4IiBjeD0iNy45OTkzMyIvPiYjeGE7PGcgY2xpcC1wYXRoPSJ1cmwoI2NsaXAwXzM1MTRfNDAyMDIpIj4mI3hhOzxwYXRoIGZpbGw9InVybCgjcGFpbnQxX2xpbmVhcl8zNTE0XzQwMjAyKSIgZD0iTTguNTgyOTIgNC4xMTQ3NEM4LjU4MjkyIDMuODM4NiA4LjgwNjc4IDMuNjE0NzUgOS4wODI5MiAzLjYxNDc1SDEwLjYyNjRDMTEuNTkyOSAzLjYxNDc1IDEyLjM3NjQgNC4zOTgyNSAxMi4zNzY0IDUuMzY0NzRWNi42OTM5NUMxMi4zNzY0IDYuOTcwMSAxMi4xNTI1IDcuMTkzOTUgMTEuODc2NCA3LjE5Mzk1QzExLjYwMDIgNy4xOTM5NSAxMS4zNzY0IDYuOTcwMSAxMS4zNzY0IDYuNjkzOTVWNS4zNjQ3NEMxMS4zNzY0IDQuOTUwNTMgMTEuMDQwNiA0LjYxNDc0IDEwLjYyNjQgNC42MTQ3NEg5LjA4MjkyQzguODA2NzggNC42MTQ3NCA4LjU4MjkyIDQuMzkwODkgOC41ODI5MiA0LjExNDc0Wk00LjEyMTU4IDguNTMzMjRDNC4zOTc3MiA4LjUzMzI0IDQuNjIxNTggOC43NTcxIDQuNjIxNTggOS4wMzMyNFYxMC42MjgxQzQuNjIxNTggMTEuMDQyMyA0Ljk1NzM2IDExLjM3ODEgNS4zNzE1OCAxMS4zNzgxSDcuMDY5MjVDNy4zNDUzOSAxMS4zNzgxIDcuNTY5MjUgMTEuNjAxOSA3LjU2OTI1IDExLjg3ODFDNy41NjkyNSAxMi4xNTQyIDcuMzQ1MzkgMTIuMzc4MSA3LjA2OTI1IDEyLjM3ODFINS4zNzE1OEM0LjQwNTA4IDEyLjM3ODEgMy42MjE1OCAxMS41OTQ2IDMuNjIxNTggMTAuNjI4MVY5LjAzMzI0QzMuNjIxNTggOC43NTcxIDMuODQ1NDQgOC41MzMyNCA0LjEyMTU4IDguNTMzMjRaIiBjbGlwLXJ1bGU9ImV2ZW5vZGQiIGZpbGwtcnVsZT0iZXZlbm9kZCIvPiYjeGE7PHBhdGggZmlsbD0idXJsKCNwYWludDJfbGluZWFyXzM1MTRfNDAyMDIpIiBkPSJNMTIuODQzMiAxMS45MzI4QzEyLjk0NzQgMTIuMDM3IDEyLjk5OTUgMTIuMTQ3NyAxMi45OTk1IDEyLjI2NDlDMTIuOTk5NSAxMi4zOTUxIDEyLjk0NzQgMTIuNTEyMyAxMi44NDMyIDEyLjYxNjRDMTIuNzM5MSAxMi43MjA2IDEyLjYyMTkgMTIuNzcyNyAxMi40OTE3IDEyLjc3MjdDMTIuMzc0NSAxMi43NzI3IDEyLjI2MzggMTIuNzIwNiAxMi4xNTk2IDEyLjYxNjRMMTAuNzcyOSAxMS4yMjk3QzEwLjM2OTMgMTEuNTgxMyA5LjkxMzU2IDExLjc1MDYgOS40MDU3NSAxMS43Mzc1QzguODk3OTQgMTEuNzExNSA4LjQ1NTI0IDExLjUwOTcgOC4wNzc2MyAxMS4xMzIxTDcuNjI4NDIgMTAuNjgyOEM3LjUyNDI1IDEwLjU3ODcgNy40NzIxNyAxMC40NjggNy40NzIxNyAxMC4zNTA4QzcuNDcyMTcgMTAuMjIwNiA3LjUyNDI1IDEwLjEwMzQgNy42Mjg0MiA5Ljk5OTI2TDEwLjE2NzUgNy40NjAyQzEwLjI3MTYgNy4zNTYwNCAxMC4zODg4IDcuMzAzOTYgMTAuNTE5IDcuMzAzOTZDMTAuNjQ5MiA3LjMwMzk2IDEwLjc2NjQgNy4zNTYwNCAxMC44NzA2IDcuNDYwMkwxMS4zMTk4IDcuOTA5NDJDMTEuNjk3NCA4LjI4NzAyIDExLjg5MjcgOC43MjMyMiAxMS45MDU3IDkuMjE4MDFDMTEuOTMxOCA5LjY5OTc4IDExLjc4MiAxMC4xMzYgMTEuNDU2NSAxMC41MjY2TDEyLjg0MzIgMTEuOTMyOFoiIGNsaXAtcnVsZT0iZXZlbm9kZCIgZmlsbC1ydWxlPSJldmVub2RkIi8+JiN4YTs8cGF0aCBmaWxsPSJ1cmwoI3BhaW50M19saW5lYXJfMzUxNF80MDIwMikiIGQ9Ik03LjcxNTE4IDguNzA0MDZDNy42MTEwMSA4LjgwODIzIDcuNDkzODIgOC44NjAzMSA3LjM2MzYxIDguODYwMzFDNy4yNDY0MiA4Ljg2MDMxIDcuMTM1NzUgOC44MDgyMyA3LjAzMTU4IDguNzA0MDZMNi4xMzMxNCA3LjgwNTYzTDUuNzQyNTIgOC4xOTYyNUM1LjYzODM1IDguMzAwNDIgNS41MjExNiA4LjM1MjUgNS4zOTA5NSA4LjM1MjVDNS4yNDc3MyA4LjM1MjUgNS4xMzA1NCA4LjMwMDQyIDUuMDM5MzkgOC4xOTYyNUw0LjU5MDE3IDcuNzY2NTdDNC4yMTI1NyA3LjM4ODk2IDQuMDEwNzUgNi45NTkyOCAzLjk4NDcgNi40Nzc1MUMzLjk1ODY2IDUuOTgyNzIgNC4wOTUzOCA1LjUzMzUgNC4zOTQ4NiA1LjEyOTg2TDMuMTU1NzYgMy44NTgzOUMzLjA1MTYgMy43NTQyMyAyLjk5OTUxIDMuNjM3MDQgMi45OTk1MSAzLjUwNjgzQzIuOTk5NTEgMy4zNzY2MyAzLjA1MTYgMy4yNTk0NCAzLjE1NTc2IDMuMTU1MjdDMy4yNTk5MyAzLjA1MTExIDMuMzcwNjEgMi45OTkwMiAzLjQ4Nzc5IDIuOTk5MDJDMy42MTggMi45OTkwMiAzLjczNTE5IDMuMDUxMTEgMy44MzkzNiAzLjE1NTI3TDUuMDc4NDUgNC40MjY3NEM1LjQ4MjEgNC4xMDEyMiA1LjkzNzgzIDMuOTUxNDggNi40NDU2NCAzLjk3NzUyQzYuOTUzNDYgNC4wMDM1NiA3LjM5NjE2IDQuMjA1MzggNy43NzM3NyA0LjU4Mjk5TDguMjIyOTkgNS4wMzIyQzguMzE0MTMgNS4xMjMzNSA4LjM1OTcxIDUuMjQwNTMgOC4zNTk3MSA1LjM4Mzc2QzguMzU5NzEgNS41MTM5NyA4LjMxNDEzIDUuNjI0NjUgOC4yMjI5OSA1LjcxNTc5TDcuODEyODMgNi4xMjU5NUw4LjcxMTI3IDcuMDA0ODVDOC44MTU0NCA3LjEwOTAyIDguODY3NTIgNy4yMjYyIDguODY3NTIgNy4zNTY0MUM4Ljg2NzUyIDcuNDg2NjIgOC44MTU0NCA3LjYwMzgxIDguNzExMjcgNy43MDc5N0M4LjYwNzEgNy44MTIxNCA4LjQ4OTkyIDcuODY0MjIgOC4zNTk3MSA3Ljg2NDIyQzguMjI5NSA3Ljg2NDIyIDguMTEyMzEgNy44MTIxNCA4LjAwODE0IDcuNzA3OTdMNy4xMjkyNCA2LjgwOTU0TDYuODE2NzQgNy4xMjIwNEw3LjI2NTk2IDcuNTYxNDlMNy43MTUxOCA4LjAwMDk0QzcuODE5MzQgOC4xMDUxMSA3Ljg3MTQzIDguMjIyMjkgNy44NzE0MyA4LjM1MjVDNy44NzE0MyA4LjQ4MjcxIDcuODE5MzQgOC41OTk5IDcuNzE1MTggOC43MDQwNloiLz4mI3hhOzwvZz4mI3hhOzxkZWZzPiYjeGE7PGxpbmVhckdyYWRpZW50IGdyYWRpZW50VW5pdHM9InVzZXJTcGFjZU9uVXNlIiB5Mj0iMTQuNzQ3IiB4Mj0iMTMuNjg3NCIgeTE9IjIuMjcwMTYiIHgxPSIxLjQ1MDQzIiBpZD0icGFpbnQwX2xpbmVhcl8zNTE0XzQwMjAyIj4mI3hhOzxzdG9wIHN0b3AtY29sb3I9IndoaXRlIi8+JiN4YTs8c3RvcCBzdG9wLWNvbG9yPSIjRUFFQ0VFIiBvZmZzZXQ9IjEiLz4mI3hhOzwvbGluZWFyR3JhZGllbnQ+JiN4YTs8bGluZWFyR3JhZGllbnQgZ3JhZGllbnRVbml0cz0idXNlclNwYWNlT25Vc2UiIHkyPSIxMS4wNTc0IiB4Mj0iMTEuMDciIHkxPSI0LjkyNTI1IiB4MT0iNC45MzM5NiIgaWQ9InBhaW50MV9saW5lYXJfMzUxNF80MDIwMiI+JiN4YTs8c3RvcCBzdG9wLWNvbG9yPSIjMDE5NUZGIi8+JiN4YTs8c3RvcCBzdG9wLWNvbG9yPSIjMTE0N0U5IiBvZmZzZXQ9IjAuOTkxMDI4Ii8+JiN4YTs8L2xpbmVhckdyYWRpZW50PiYjeGE7PGxpbmVhckdyYWRpZW50IGdyYWRpZW50VW5pdHM9InVzZXJTcGFjZU9uVXNlIiB5Mj0iMTEuOTkxOCIgeDI9IjEyLjEyODQiIHkxPSI4LjEyNDQ0IiB4MT0iOC4yOTkzOCIgaWQ9InBhaW50Ml9saW5lYXJfMzUxNF80MDIwMiI+JiN4YTs8c3RvcCBzdG9wLWNvbG9yPSIjMDBCQkZGIi8+JiN4YTs8c3RvcCBzdG9wLWNvbG9yPSIjMDA4QkZGIiBvZmZzZXQ9IjEiLz4mI3hhOzwvbGluZWFyR3JhZGllbnQ+JiN4YTs8bGluZWFyR3JhZGllbnQgZ3JhZGllbnRVbml0cz0idXNlclNwYWNlT25Vc2UiIHkyPSI3Ljk4NTcxIiB4Mj0iNy45NjkwMiIgeTE9IjMuODYxMzQiIHgxPSIzLjg2NzA2IiBpZD0icGFpbnQzX2xpbmVhcl8zNTE0XzQwMjAyIj4mI3hhOzxzdG9wIHN0b3AtY29sb3I9IiMxMzQ4RkYiLz4mI3hhOzxzdG9wIHN0b3AtY29sb3I9IiMwNjIzOEQiIG9mZnNldD0iMSIvPiYjeGE7PC9saW5lYXJHcmFkaWVudD4mI3hhOzxjbGlwUGF0aCBpZD0iY2xpcDBfMzUxNF80MDIwMiI+JiN4YTs8cmVjdCB0cmFuc2Zvcm09InRyYW5zbGF0ZSgyLjk5OTI3IDIuOTk5MDIpIiBmaWxsPSJ3aGl0ZSIgaGVpZ2h0PSI5Ljk5OTk2IiB3aWR0aD0iOS45OTk5NiIvPiYjeGE7PC9jbGlwUGF0aD4mI3hhOzwvZGVmcz4mI3hhOzwvc3ZnPg==;points=[[0,0,0,0,0],[0,0.25,0,0,0],[0,0.5,0,0,0],[0,0.75,0,0,0],[0.25,0,0,0,0],[0.5,0,0,0,0],[0.75,0,0,0,0],[1,0,0,0,0],[1,0.25,0,0,0],[1,0.5,0,0,0],[1,0.75,0,0,0]];fontStyle=0;fontSize=12;fontColor=#1D2D3E;container=0;" parent="i0-r0BhkWRjA8PmNq9u2-2" vertex="1">
          <mxGeometry x="310.00047882136283" y="359" width="56" height="56" as="geometry" />
        </mxCell>
        <mxCell id="i0-r0BhkWRjA8PmNq9u2-52" value="" style="edgeStyle=none;orthogonalLoop=1;jettySize=auto;html=1;rounded=0;endArrow=none;endFill=0;strokeWidth=2;entryX=0.592;entryY=1.004;entryDx=0;entryDy=0;entryPerimeter=0;" parent="i0-r0BhkWRjA8PmNq9u2-2" edge="1" target="i0-r0BhkWRjA8PmNq9u2-2">
          <mxGeometry width="80" relative="1" as="geometry">
            <mxPoint x="411.1620626151013" as="sourcePoint" />
            <mxPoint x="411.1620626151013" y="640" as="targetPoint" />
            <Array as="points" />
          </mxGeometry>
        </mxCell>
        <mxCell id="i0-r0BhkWRjA8PmNq9u2-55" value="&lt;p style=&quot;line-height: 114%;&quot;&gt;&lt;font color=&quot;#475f75&quot; size=&quot;1&quot;&gt;&lt;b style=&quot;&quot;&gt;TRUST&lt;/b&gt;&lt;/font&gt;&lt;/p&gt;" style="rounded=1;whiteSpace=wrap;html=1;arcSize=50;strokeColor=#475f75;fillColor=#f5f6f7;fontColor=#266f3a;strokeWidth=1.5;" parent="i0-r0BhkWRjA8PmNq9u2-2" vertex="1">
          <mxGeometry x="393.43267034990794" y="379" width="44.155230202578274" height="16" as="geometry" />
        </mxCell>
        <mxCell id="i0-r0BhkWRjA8PmNq9u2-56" value="" style="endArrow=none;html=1;rounded=0;entryX=0;entryY=0.5;entryDx=0;entryDy=0;strokeColor=#9673a6;strokeWidth=1.5;exitX=1;exitY=0.5;exitDx=0;exitDy=0;exitPerimeter=0;fillColor=#e1d5e7;" parent="i0-r0BhkWRjA8PmNq9u2-2" source="i0-r0BhkWRjA8PmNq9u2-51" target="i0-r0BhkWRjA8PmNq9u2-55" edge="1">
          <mxGeometry width="50" height="50" relative="1" as="geometry">
            <mxPoint x="284.0698710865562" y="366.99999999999955" as="sourcePoint" />
            <mxPoint x="414.4639779005525" y="377" as="targetPoint" />
          </mxGeometry>
        </mxCell>
        <mxCell id="i0-r0BhkWRjA8PmNq9u2-59" style="edgeStyle=orthogonalEdgeStyle;rounded=0;orthogonalLoop=1;jettySize=auto;html=1;entryX=0;entryY=0.5;entryDx=0;entryDy=0;entryPerimeter=0;strokeColor=#9673a6;strokeWidth=2;endArrow=none;endFill=0;fillColor=#e1d5e7;exitX=1;exitY=0.5;exitDx=0;exitDy=0;exitPerimeter=0;" parent="i0-r0BhkWRjA8PmNq9u2-2" source="vDJPk2kyMGkQtoP7QIK8-4" target="i0-r0BhkWRjA8PmNq9u2-51" edge="1">
          <mxGeometry relative="1" as="geometry">
            <Array as="points">
              <mxPoint x="250" y="195" />
              <mxPoint x="250" y="387" />
            </Array>
            <mxPoint x="154.1495872603184" y="129.58941176470626" as="sourcePoint" />
          </mxGeometry>
        </mxCell>
        <mxCell id="vDJPk2kyMGkQtoP7QIK8-4" value="Cloud &#xa;Integration" style="shape=image;verticalLabelPosition=bottom;verticalAlign=top;aspect=fixed;imageAspect=0;image=data:image/svg+xml,PHN2ZyB4bWxucz0iaHR0cDovL3d3dy53My5vcmcvMjAwMC9zdmciIGZpbGw9Im5vbmUiIHZpZXdCb3g9IjAgMCAxNiAxNiIgaGVpZ2h0PSIxNiIgd2lkdGg9IjE2Ij4mI3hhOzxjaXJjbGUgc3Ryb2tlLXdpZHRoPSIwLjI4NTcwOCIgc3Ryb2tlPSIjRDVEQUREIiBmaWxsPSJ1cmwoI3BhaW50MF9saW5lYXJfMzUxNF80MDI3MSkiIHI9IjcuODU2OTYiIGN5PSI3Ljk5NzYyIiBjeD0iNy45OTc2MiIvPiYjeGE7PGcgY2xpcC1wYXRoPSJ1cmwoI2NsaXAwXzM1MTRfNDAyNzEpIj4mI3hhOzxwYXRoIGZpbGw9InVybCgjcGFpbnQxX2xpbmVhcl8zNTE0XzQwMjcxKSIgZD0iTTcuMjYwOTUgMy4zOTc3MUM2LjAxNzkzIDMuMzk3NzEgNS4xMzQ3NyA0LjQwOTUzIDQuOTg3NjMgNS40NjU4OUM0LjU4Nzc5IDUuNDg5NjkgNC4yMzQ3MyA1LjYzOTk2IDMuOTYwNTEgNS44OTIzNkMzLjU4OTU1IDYuMjMzODEgMy4zOTc5NSA2LjcyOTQzIDMuMzk3OTUgNy4yNTIwOUMzLjM5Nzk1IDcuNzM3ODIgMy41NDUyOSA4LjE5Njk0IDMuODc2MDggOC41MzYzOUM0LjIwOTEgOC44NzgxMyA0LjY4MTg5IDkuMDUxMjQgNS4yMzg1OCA5LjA1MTI0SDYuMjE4NDFDNi4zMjIwOCA4LjQ4MTQyIDYuODIwOTIgOC4wNDkzOCA3LjQyMDY2IDguMDQ5MzhINy43NTc4NEM3Ljc2OTc0IDguMDQ5MzggNy43ODE2IDguMDQ5NTUgNy43OTM0MSA4LjA0OTg4QzcuNzc0NjQgNy45NjQ3NSA3Ljc2NDc0IDcuODc2MjkgNy43NjQ3NCA3Ljc4NTUxVjcuNDQ2NTFDNy43NjQ3NCA2Ljc3MTYgOC4zMTE4NyA2LjIyNDQ3IDguOTg2NzggNi4yMjQ0N0g5LjMyMzk1QzkuOTk4ODYgNi4yMjQ0NyAxMC41NDYgNi43NzE2IDEwLjU0NiA3LjQ0NjUxVjcuNzI5NDJDMTAuNzA3MyA3LjUzOTc2IDEwLjkyNTUgNy40IDExLjE3NDIgNy4zMzY1M0MxMS4xOTggNy4yMDI4NSAxMS4yMTA0IDcuMDYyNiAxMS4yMTA0IDYuOTE2MjJDMTEuMjEwNCA1Ljc1OTgzIDEwLjM4NCA0Ljg3MTE2IDkuMzg5MDEgNC43NzcxN0M4Ljk5MDE3IDMuOTUyNDIgOC4yNDk4MiAzLjM5NzcxIDcuMjYwOTUgMy4zOTc3MVoiLz4mI3hhOzxwYXRoIGZpbGw9InVybCgjcGFpbnQyX3JhZGlhbF8zNTE0XzQwMjcxKSIgZD0iTTkuMzIzNyA2LjcyNDYxQzkuNzIyNDcgNi43MjQ2MSAxMC4wNDU3IDcuMDQ3ODggMTAuMDQ1NyA3LjQ0NjY1VjcuNzg1NjVDMTAuMDQ1NyA4LjAwODk1IDkuOTQ0MzcgOC4yMDg1NyA5Ljc4NTE0IDguMzQxMDJMOS45NTIyMyA5LjAwMzY2SDkuOTc2MzNDMTAuMDQ2MSA5LjAwMzY2IDEwLjExMTggOS4wMjExIDEwLjE2OTMgOS4wNTE4N0wxMC43NTUgOC43NTQ2OFY4LjUyMDg3QzEwLjc1NSA4LjEyMjEgMTEuMDc4MyA3Ljc5ODgzIDExLjQ3NzEgNy43OTg4M0gxMS44MTQyQzEyLjIxMyA3Ljc5ODgzIDEyLjUzNjMgOC4xMjIxIDEyLjUzNjMgOC41MjA4N1Y4Ljg1OTg3QzEyLjUzNjMgOS4yNTg2NCAxMi4yMTMgOS41ODE5IDExLjgxNDIgOS41ODE5SDExLjQ3NzFDMTEuMjcwMiA5LjU4MTkgMTEuMDgzNyA5LjQ5NDkzIDEwLjk1MjEgOS4zNTU1NUwxMC4zODU5IDkuNjQyODFWOS43MTQ0TDEwLjM4NzggOS43MTE1MUwxMC44MTY4IDkuOTkyNjNDMTAuOTQwNSA5Ljg5MzIyIDExLjA5NzcgOS44MzM3NCAxMS4yNjg4IDkuODMzNzRIMTEuNzE5OEMxMi4xMTg2IDkuODMzNzQgMTIuNDQxOCAxMC4xNTcgMTIuNDQxOCAxMC41NTU4VjExLjAwODhDMTIuNDQxOCAxMS40MDc2IDEyLjExODYgMTEuNzMwOSAxMS43MTk4IDExLjczMDlIMTEuMjY4OEMxMC44NyAxMS43MzA5IDEwLjU0NjcgMTEuNDA3NiAxMC41NDY3IDExLjAwODhWMTAuNTYyOUwxMC4xNTk5IDEwLjMwOTRDMTAuMTA0NyAxMC4zMzcyIDEwLjA0MjMgMTAuMzUyOCA5Ljk3NjMzIDEwLjM1MjhIOS42NDI3NEw4Ljk3MzI1IDExLjI1MThDOS4wMjIwNCAxMS4zNDkgOS4wNDk1IDExLjQ1ODggOS4wNDk1IDExLjU3NTFWMTEuOTE0MUM5LjA0OTUgMTIuMzEyOCA4LjcyNjIzIDEyLjYzNjEgOC4zMjc0NiAxMi42MzYxSDcuOTkwMjlDNy41OTE1MiAxMi42MzYxIDcuMjY4MjUgMTIuMzEyOCA3LjI2ODI1IDExLjkxNDFMNy4yNjgyNSAxMS41NzUxQzcuMjY4MjUgMTEuMTc2MyA3LjU5MTUyIDEwLjg1MyA3Ljk5MDI5IDEwLjg1M0g4LjMyNzQ2QzguMzc5NDYgMTAuODUzIDguNDMwMTggMTAuODU4NSA4LjQ3OTA2IDEwLjg2OUw5LjA2MjI1IDEwLjA4NTlDOS4wNDU3NSAxMC4wNDE1IDkuMDM2NzQgOS45OTM0MSA5LjAzNjc0IDkuOTQzMjVWOS44MzczOUw4LjQ0MzQgOS44Mzc0QzguMzQ4MyAxMC4xMjUxIDguMDc3MjQgMTAuMzMyNiA3Ljc1NzcgMTAuMzMyNkg3LjQyMDUyQzcuMDIxNzUgMTAuMzMyNiA2LjY5ODQ5IDEwLjAwOTQgNi42OTg0OSA5LjYxMDZMNi42OTg0OSA5LjI3MTZDNi42OTg0OSA4Ljg3MjgzIDcuMDIxNzUgOC41NDk1NiA3LjQyMDUyIDguNTQ5NTZINy43NTc3QzguMTM2NTQgOC41NDk1NiA4LjQ0NzIzIDguODQxMzIgOC40NzczNCA5LjIxMjRMOS4wODkyNiA5LjIxMjM5QzkuMTM4MTUgOS4xMjU2NyA5LjIxNzcyIDkuMDU4NTUgOS4zMTMyNCA5LjAyNTc1TDkuMTgyNiA4LjUwNzY4SDguOTg2NTJDOC41ODc3NSA4LjUwNzY4IDguMjY0NDggOC4xODQ0MiA4LjI2NDQ4IDcuNzg1NjVWNy40NDY2NUM4LjI2NDQ4IDcuMDQ3ODggOC41ODc3NSA2LjcyNDYxIDguOTg2NTIgNi43MjQ2MUg5LjMyMzdaTTkuNDIwNzMgNy40NDY2NUM5LjQyMDczIDcuMzkzMDYgOS4zNzcyOSA3LjM0OTYxIDkuMzIzNyA3LjM0OTYxTDguOTg2NTIgNy4zNDk2MUM4LjkzMjkzIDcuMzQ5NjEgOC44ODk0OCA3LjM5MzA1IDguODg5NDggNy40NDY2NVY3Ljc4NTY1QzguODg5NDggNy44MzkyNCA4LjkzMjkzIDcuODgyNjggOC45ODY1MiA3Ljg4MjY4SDkuMzIzN0M5LjM3NzI5IDcuODgyNjggOS40MjA3MyA3LjgzOTI0IDkuNDIwNzMgNy43ODU2NVY3LjQ0NjY1Wk0xMS45MTEzIDguNTIwODdDMTEuOTExMyA4LjQ2NzI3IDExLjg2NzggOC40MjM4MyAxMS44MTQyIDguNDIzODNIMTEuNDc3MUMxMS40MjM1IDguNDIzODMgMTEuMzggOC40NjcyNyAxMS4zOCA4LjUyMDg3VjguODU5ODZDMTEuMzggOC45MTM0NiAxMS40MjM1IDguOTU2OSAxMS40NzcxIDguOTU2OUgxMS44MTQyQzExLjg2NzggOC45NTY5IDExLjkxMTMgOC45MTM0NiAxMS45MTEzIDguODU5ODZWOC41MjA4N1pNMTEuODE2OCAxMC41NTU4QzExLjgxNjggMTAuNTAyMiAxMS43NzM0IDEwLjQ1ODcgMTEuNzE5OCAxMC40NTg3SDExLjI2ODhDMTEuMjE1MiAxMC40NTg3IDExLjE3MTcgMTAuNTAyMiAxMS4xNzE3IDEwLjU1NThWMTEuMDA4OEMxMS4xNzE3IDExLjA2MjQgMTEuMjE1MiAxMS4xMDU5IDExLjI2ODggMTEuMTA1OUgxMS43MTk4QzExLjc3MzQgMTEuMTA1OSAxMS44MTY4IDExLjA2MjQgMTEuODE2OCAxMS4wMDg4VjEwLjU1NThaTTcuNzU3NyA5LjE3NDU2QzcuODExMjkgOS4xNzQ1NiA3Ljg1NDc0IDkuMjE4MDEgNy44NTQ3NCA5LjI3MTZWOS42MTA2QzcuODU0NzQgOS42NjQxOSA3LjgxMTI5IDkuNzA3NjQgNy43NTc3IDkuNzA3NjRINy40MjA1MkM3LjM2NjkzIDkuNzA3NjQgNy4zMjM0OSA5LjY2NDE5IDcuMzIzNDkgOS42MTA2VjkuMjcxNkM3LjMyMzQ5IDkuMjE4MDEgNy4zNjY5MyA5LjE3NDU2IDcuNDIwNTIgOS4xNzQ1Nkg3Ljc1NzdaTTguNDI0NSAxMS41NzUxQzguNDI0NSAxMS41MjE1IDguMzgxMDUgMTEuNDc4IDguMzI3NDYgMTEuNDc4SDcuOTkwMjlDNy45MzY2OSAxMS40NzggNy44OTMyNSAxMS41MjE1IDcuODkzMjUgMTEuNTc1MVYxMS45MTQxQzcuODkzMjUgMTEuOTY3NyA3LjkzNjcgMTIuMDExMSA3Ljk5MDI5IDEyLjAxMTFIOC4zMjc0NkM4LjM4MTA1IDEyLjAxMTEgOC40MjQ1IDExLjk2NzcgOC40MjQ1IDExLjkxNDFWMTEuNTc1MVoiIGNsaXAtcnVsZT0iZXZlbm9kZCIgZmlsbC1ydWxlPSJldmVub2RkIi8+JiN4YTs8L2c+JiN4YTs8ZGVmcz4mI3hhOzxsaW5lYXJHcmFkaWVudCBncmFkaWVudFVuaXRzPSJ1c2VyU3BhY2VPblVzZSIgeTI9IjE0Ljc0NTYiIHgyPSIxMy42ODU2IiB5MT0iMi4yNjg3IiB4MT0iMS40NDg3MyIgaWQ9InBhaW50MF9saW5lYXJfMzUxNF80MDI3MSI+JiN4YTs8c3RvcCBzdG9wLWNvbG9yPSJ3aGl0ZSIvPiYjeGE7PHN0b3Agc3RvcC1jb2xvcj0iI0VBRUNFRSIgb2Zmc2V0PSIxIi8+JiN4YTs8L2xpbmVhckdyYWRpZW50PiYjeGE7PGxpbmVhckdyYWRpZW50IGdyYWRpZW50VW5pdHM9InVzZXJTcGFjZU9uVXNlIiB5Mj0iOS40NDA1IiB4Mj0iOC4zMjg4NCIgeTE9IjQuMjQzMTYiIHgxPSI0LjU2OTA4IiBpZD0icGFpbnQxX2xpbmVhcl8zNTE0XzQwMjcxIj4mI3hhOzxzdG9wIHN0b3AtY29sb3I9IiMwMTk1RkYiLz4mI3hhOzxzdG9wIHN0b3AtY29sb3I9IiMxMTQ3RTkiIG9mZnNldD0iMC45OTEwMjgiLz4mI3hhOzwvbGluZWFyR3JhZGllbnQ+JiN4YTs8cmFkaWFsR3JhZGllbnQgZ3JhZGllbnRUcmFuc2Zvcm09InRyYW5zbGF0ZSg3LjYwMjQ2IDcuNjEzOSkgcm90YXRlKDQ1LjM1OTQpIHNjYWxlKDUuNzg3MjQgNS4yNzMyOCkiIGdyYWRpZW50VW5pdHM9InVzZXJTcGFjZU9uVXNlIiByPSIxIiBjeT0iMCIgY3g9IjAiIGlkPSJwYWludDJfcmFkaWFsXzM1MTRfNDAyNzEiPiYjeGE7PHN0b3Agc3RvcC1jb2xvcj0iIzEzNDhGRiIvPiYjeGE7PHN0b3Agc3RvcC1jb2xvcj0iIzA2MjM4RCIgb2Zmc2V0PSIxIi8+JiN4YTs8L3JhZGlhbEdyYWRpZW50PiYjeGE7PGNsaXBQYXRoIGlkPSJjbGlwMF8zNTE0XzQwMjcxIj4mI3hhOzxyZWN0IHRyYW5zZm9ybT0idHJhbnNsYXRlKDMuMzk3NzEgMy4zOTc3MSkiIGZpbGw9IndoaXRlIiBoZWlnaHQ9IjEwIiB3aWR0aD0iMTAiLz4mI3hhOzwvY2xpcFBhdGg+JiN4YTs8L2RlZnM+JiN4YTs8L3N2Zz4=;points=[[0,0,0,0,0],[0,0.25,0,0,0],[0,0.5,0,0,0],[0,0.75,0,0,0],[0.25,0,0,0,0],[0.5,0,0,0,0],[0.75,0,0,0,0],[1,0,0,0,0],[1,0.25,0,0,0],[1,0.5,0,0,0],[1,0.75,0,0,0]];container=0;fontStyle=0;fontSize=12;fontColor=#1D2D3E;" vertex="1" parent="i0-r0BhkWRjA8PmNq9u2-2">
          <mxGeometry x="91.08659300184163" y="169" width="52.18" height="52.18" as="geometry" />
        </mxCell>
        <mxCell id="vDJPk2kyMGkQtoP7QIK8-10" value="" style="edgeStyle=orthogonalEdgeStyle;rounded=0;orthogonalLoop=1;jettySize=auto;html=1;fillColor=#fff2cc;strokeColor=#d6b656;strokeWidth=2;endArrow=blockThin;endFill=1;" edge="1" parent="i0-r0BhkWRjA8PmNq9u2-2" source="vDJPk2kyMGkQtoP7QIK8-3" target="vDJPk2kyMGkQtoP7QIK8-4">
          <mxGeometry relative="1" as="geometry" />
        </mxCell>
        <mxCell id="vDJPk2kyMGkQtoP7QIK8-3" value="Event Mesh" style="shape=image;verticalLabelPosition=bottom;verticalAlign=top;aspect=fixed;imageAspect=0;image=data:image/svg+xml,PHN2ZyB4bWxucz0iaHR0cDovL3d3dy53My5vcmcvMjAwMC9zdmciIGZpbGw9Im5vbmUiIHZpZXdCb3g9IjAgMCAxNiAxNiIgaGVpZ2h0PSIxNiIgd2lkdGg9IjE2Ij4mI3hhOzxjaXJjbGUgc3Ryb2tlLXdpZHRoPSIwLjI4NTcwOCIgc3Ryb2tlPSIjRDVEQUREIiBmaWxsPSJ1cmwoI3BhaW50MF9saW5lYXJfMzUxNF80MDIyNSkiIHI9IjcuODU2OTYiIGN5PSI3Ljk5ODg0IiBjeD0iNy45OTY4OSIvPiYjeGE7PGcgY2xpcC1wYXRoPSJ1cmwoI2NsaXAwXzM1MTRfNDAyMjUpIj4mI3hhOzxwYXRoIGZpbGw9InVybCgjcGFpbnQxX2xpbmVhcl8zNTE0XzQwMjI1KSIgZD0iTTcuNTE3NTEgMy44NTg0QzYuMTkxNjMgMy44NTg0IDUuMjQ5NTkgNC45MzkwNSA1LjA5MjY0IDYuMDY3MjdDNC42NjYxNCA2LjA5MjY4IDQuMjg5NTQgNi4yNTMxNyAzLjk5NzA0IDYuNTIyNzRDMy42MDEzNSA2Ljg4NzQyIDMuMzk2OTcgNy40MTY3NSAzLjM5Njk3IDcuOTc0OTZDMy4zOTY5NyA4LjQ5MzczIDMuNTU0MTQgOC45ODQwOCAzLjkwNjk4IDkuMzQ2NjJDNC4yNjIyIDkuNzExNiA0Ljc2NjUxIDkuODk2NDkgNS4zNjAzMiA5Ljg5NjQ5SDYuNDkwMDNWOS4yMTcyNUM2LjQ5MDAzIDguNTYwOTIgNy4wMTg5NyA4LjAxOTY1IDcuNjgyNzYgOC4wMTk2NUM4LjIwMDk3IDguMDE5NjUgOC42NTYwMiA4LjM1NDcgOC44MTU5MyA4Ljg0MzUyTDguODQxMTMgOC45MjA1OEw4Ljg2NDQxIDguODQ3ODdDOS4wMjE0NyA4LjM1NzE0IDkuNDc2NjggOC4wMTk2NSA5Ljk5NTkxIDguMDE5NjVDMTAuNjMyOSA4LjAxOTY1IDExLjE0NTMgOC41MTk4NyAxMS4xODIzIDkuMTQwOTVDMTEuNTE5NSA4Ljc1NjE2IDExLjczMDMgOC4yMzc5NiAxMS43MzAzIDcuNjE2MjVDMTEuNzMwMyA2LjM4MTIgMTAuODQ4OCA1LjQzMjA4IDkuNzg3NDYgNS4zMzE3QzkuMzYyMDMgNC40NTA4NSA4LjU3MjMxIDMuODU4NCA3LjUxNzUxIDMuODU4NFoiLz4mI3hhOzxwYXRoIGZpbGw9InVybCgjcGFpbnQyX2xpbmVhcl8zNTE0XzQwMjI1KSIgZD0iTTExLjgyNzcgMTIuNDY1OEMxMS42ODEyIDEyLjYxNDggMTEuNTM2NCAxMi44NDU4IDExLjY4MyAxMi45OTQ4QzExLjgyOTUgMTMuMTQzOCAxMS45OTU3IDEzLjE1NDMgMTIuMTQyMiAxMy4wMDUyTDEzLjI2NyAxMS44NjEyQzEzLjQxMzUgMTEuNzEyMiAxMy40MTM1IDExLjQ3MDggMTMuMjY3IDExLjMyMThMMTIuMTQyMiAxMC4xNzc3QzExLjk5NTcgMTAuMDI4NyAxMS44MjM1IDkuOTY2NjQgMTEuNjc3IDEwLjExNTdDMTEuNDkzOCAxMC4yNTg3IDExLjc0ODkgMTAuNTY4MSAxMS44OTU0IDEwLjcxNzFMMTIuMzE1MyAxMS4yMTg0TDEwLjAwMjkgMTEuMjIwOEwxMC4wMDI4IDExLjUxNzVDMTAuMDAyNiAxMS43MjIyIDEwLjE2NzIgMTEuODg4IDEwLjM3MDEgMTEuODg3OEwxMi4zNTY3IDExLjg4NTdMMTEuODI3NyAxMi40NjU4WiIvPiYjeGE7PHBhdGggZmlsbD0idXJsKCNwYWludDNfbGluZWFyXzM1MTRfNDAyMjUpIiBkPSJNNy4xNTc0NyA5LjI0ODg3QzcuMTU3NDcgOC45MzE1NSA3LjQxMjUxIDguNjc0MzIgNy43MjcxMSA4LjY3NDMyQzcuOTcyOTUgOC42NzQzMiA4LjE5MTA1IDguODMzMzggOC4yNjgwNyA5LjA2ODg0TDguNzM1MjcgMTAuNDk3QzguNzYxMjcgMTAuNTc1NyA4Ljc5MTg0IDEwLjY4NTkgOC44MjcwMSAxMC44Mjc4QzguODYyMTcgMTAuOTY5NyA4Ljg4NTExIDExLjA2MzcgOC44OTU4MSAxMS4xMUM4LjkwODA0IDExLjA2MzcgOC45MzI1IDEwLjk3MTIgOC45NjkxOSAxMC44MzI0QzkuMDA3NDIgMTAuNjkyMSA5LjAzOTUyIDEwLjU4NDEgOS4wNjU1MSAxMC41MDg2TDkuNTI2MTYgOS4wNjkzN0M5LjYwMTUzIDguODMzOSA5LjgxODg2IDguNjc0MzIgMTAuMDY0MiA4LjY3NDMyQzEwLjM3NjQgOC42NzQzMiAxMC42Mjk2IDguOTI5NjIgMTAuNjI5NiA5LjI0NDU2VjExLjIyMDJMMTAuMDAyOSAxMS4yMjA4TDEwLjAwMzUgOS45NTgwOEMxMC4wMDM1IDkuNzkxNTMgMTAuMDA3MyA5LjYzNDI0IDEwLjAxNDkgOS40ODYyMUMxMC4wMjQxIDkuMzM4MTcgMTAuMDIwNCA5LjI3OTMxIDEwLjAyODcgOS4yNTI1OUMxMC4wMjcyIDkuMjU0MTMgMTAuMDExOSA5LjMwODEgOS45ODI4NCA5LjQxNDVDOS45Njc1NSA5LjQ2NTM5IDkuOTM1NDUgOS41NzQ4OCA5Ljg4NjUyIDkuNzQyOTZDOS44MzkxMyA5LjkxMTA0IDkuODAxNjcgMTAuMDM1MiA5Ljc3NDE1IDEwLjExNTRMOS4yNTYzNCAxMS42NzAzQzkuMjAzOTggMTEuODI3NSA5LjA1NzkzIDExLjkzMzQgOC44OTM1MSAxMS45MzM0QzguNzI5MDkgMTEuOTMzNCA4LjU4MzA0IDExLjgyNzUgOC41MzA2OSAxMS42NzAzTDguMDEyODggMTAuMTE1NEM3Ljk4MDc3IDEwLjAyMTMgNy45MzQ5MSA5Ljg3NDAzIDcuODc1MjggOS42NzM1N0M3LjgxNzE4IDkuNDcxNTYgNy43NzY2NyA5LjMzMTIzIDcuNzUzNzMgOS4yNTI1OUw3Ljc1ODMyIDkuMzE5NjdDNy43NTk4NSA5LjM0NDM0IDcuNzY0NDQgOS40MzE0NiA3Ljc3MjA4IDkuNTgxMDRDNy43Nzk3MiA5LjcyOTA4IDcuNzgzNTUgOS44NTQ3NiA3Ljc4MzU1IDkuOTU4MDhWMTEuNjE3N0M3Ljc4MzU1IDExLjc5MjEgNy42NDM0IDExLjkzMzQgNy40NzA1MSAxMS45MzM0QzcuMjk3NjIgMTEuOTMzNCA3LjE1NzQ3IDExLjc5MjEgNy4xNTc0NyAxMS42MTc3VjkuMjQ4ODdaIi8+JiN4YTs8L2c+JiN4YTs8ZGVmcz4mI3hhOzxsaW5lYXJHcmFkaWVudCBncmFkaWVudFVuaXRzPSJ1c2VyU3BhY2VPblVzZSIgeTI9IjE0Ljc0NjgiIHgyPSIxMy42ODQ5IiB5MT0iMi4yNjk5MiIgeDE9IjEuNDQ3OTkiIGlkPSJwYWludDBfbGluZWFyXzM1MTRfNDAyMjUiPiYjeGE7PHN0b3Agc3RvcC1jb2xvcj0id2hpdGUiLz4mI3hhOzxzdG9wIHN0b3AtY29sb3I9IiNFQUVDRUUiIG9mZnNldD0iMSIvPiYjeGE7PC9saW5lYXJHcmFkaWVudD4mI3hhOzxsaW5lYXJHcmFkaWVudCBncmFkaWVudFVuaXRzPSJ1c2VyU3BhY2VPblVzZSIgeTI9IjEwLjMwNzQiIHgyPSI4LjY2MzI3IiB5MT0iNC43NjEzNiIgeDE9IjQuNjQ2MTgiIGlkPSJwYWludDFfbGluZWFyXzM1MTRfNDAyMjUiPiYjeGE7PHN0b3Agc3RvcC1jb2xvcj0iIzAxOTVGRiIvPiYjeGE7PHN0b3Agc3RvcC1jb2xvcj0iIzExNDdFOSIgb2Zmc2V0PSIwLjk5MTAyOCIvPiYjeGE7PC9saW5lYXJHcmFkaWVudD4mI3hhOzxsaW5lYXJHcmFkaWVudCBncmFkaWVudFVuaXRzPSJ1c2VyU3BhY2VPblVzZSIgeTI9IjEzLjQ1NSIgeDI9IjExLjAwOTYiIHkxPSI5LjMyNzE5IiB4MT0iOC4wNzY5NyIgaWQ9InBhaW50Ml9saW5lYXJfMzUxNF80MDIyNSI+JiN4YTs8c3RvcCBzdG9wLWNvbG9yPSIjMTM0OEZGIi8+JiN4YTs8c3RvcCBzdG9wLWNvbG9yPSIjMDYyMzhEIiBvZmZzZXQ9IjEiLz4mI3hhOzwvbGluZWFyR3JhZGllbnQ+JiN4YTs8bGluZWFyR3JhZGllbnQgZ3JhZGllbnRVbml0cz0idXNlclNwYWNlT25Vc2UiIHkyPSIxMy40NTUiIHgyPSIxMS4wMDk2IiB5MT0iOS4zMjcxOSIgeDE9IjguMDc2OTciIGlkPSJwYWludDNfbGluZWFyXzM1MTRfNDAyMjUiPiYjeGE7PHN0b3Agc3RvcC1jb2xvcj0iIzEzNDhGRiIvPiYjeGE7PHN0b3Agc3RvcC1jb2xvcj0iIzA2MjM4RCIgb2Zmc2V0PSIxIi8+JiN4YTs8L2xpbmVhckdyYWRpZW50PiYjeGE7PGNsaXBQYXRoIGlkPSJjbGlwMF8zNTE0XzQwMjI1Ij4mI3hhOzxyZWN0IHRyYW5zZm9ybT0idHJhbnNsYXRlKDMuMzk2OTcgMy43OTkwNykiIGZpbGw9IndoaXRlIiBoZWlnaHQ9IjEwLjAwMDIiIHdpZHRoPSIxMCIvPiYjeGE7PC9jbGlwUGF0aD4mI3hhOzwvZGVmcz4mI3hhOzwvc3ZnPg==;points=[[0,0,0,0,0],[0,0.25,0,0,0],[0,0.5,0,0,0],[0,0.75,0,0,0],[0.25,0,0,0,0],[0.5,0,0,0,0],[0.75,0,0,0,0],[1,0,0,0,0],[1,0.25,0,0,0],[1,0.5,0,0,0],[1,0.75,0,0,0]];container=0;fontStyle=0;fontSize=12;fontColor=#1D2D3E;" vertex="1" parent="i0-r0BhkWRjA8PmNq9u2-2">
          <mxGeometry x="92.13815837937386" y="87" width="50" height="50" as="geometry" />
        </mxCell>
        <mxCell id="vDJPk2kyMGkQtoP7QIK8-6" value="&lt;p style=&quot;line-height: 114%;&quot;&gt;&lt;font color=&quot;#475f75&quot; size=&quot;1&quot;&gt;&lt;b style=&quot;&quot;&gt;OAuth2&lt;/b&gt;&lt;/font&gt;&lt;/p&gt;" style="rounded=1;whiteSpace=wrap;html=1;arcSize=50;strokeColor=#475f75;fillColor=#f5f6f7;fontColor=#266f3a;strokeWidth=1.5;" vertex="1" parent="i0-r0BhkWRjA8PmNq9u2-2">
          <mxGeometry x="391.18232044198896" y="110" width="44.155230202578274" height="16" as="geometry" />
        </mxCell>
        <mxCell id="vDJPk2kyMGkQtoP7QIK8-5" style="edgeStyle=orthogonalEdgeStyle;rounded=0;orthogonalLoop=1;jettySize=auto;html=1;exitX=0;exitY=0.5;exitDx=0;exitDy=0;entryX=1;entryY=0.5;entryDx=0;entryDy=0;entryPerimeter=0;fillColor=#fff2cc;strokeColor=#d6b656;strokeWidth=2;endArrow=blockThin;endFill=1;" edge="1" parent="i0-r0BhkWRjA8PmNq9u2-2" source="vDJPk2kyMGkQtoP7QIK8-6" target="vDJPk2kyMGkQtoP7QIK8-3">
          <mxGeometry relative="1" as="geometry" />
        </mxCell>
        <mxCell id="vDJPk2kyMGkQtoP7QIK8-24" value="&lt;font face=&quot;arial&quot; style=&quot;color: rgb(29, 45, 62); text-wrap-mode: nowrap; font-size: 16px;&quot;&gt;&lt;b&gt;SubAccount QAL&lt;/b&gt;&lt;/font&gt;" style="rounded=1;whiteSpace=wrap;html=1;strokeColor=#0070F2;strokeWidth=1.5;arcSize=24;fillColor=#FFFFFF;perimeterSpacing=0;absoluteArcSize=1;verticalAlign=top;align=left;spacingTop=0;spacingLeft=7;" vertex="1" parent="i0-r0BhkWRjA8PmNq9u2-2">
          <mxGeometry x="19.310000000000016" y="280" width="201.64" height="203.17" as="geometry" />
        </mxCell>
        <mxCell id="vDJPk2kyMGkQtoP7QIK8-44" value="&lt;p style=&quot;line-height: 114%;&quot;&gt;&lt;font color=&quot;#475f75&quot; size=&quot;1&quot;&gt;&lt;b style=&quot;&quot;&gt;OAuth2&lt;/b&gt;&lt;/font&gt;&lt;/p&gt;" style="rounded=1;whiteSpace=wrap;html=1;arcSize=50;strokeColor=#475f75;fillColor=#f5f6f7;fontColor=#266f3a;strokeWidth=1.5;" vertex="1" parent="i0-r0BhkWRjA8PmNq9u2-2">
          <mxGeometry x="391.32232044198895" y="330" width="44.155230202578274" height="16" as="geometry" />
        </mxCell>
        <mxCell id="vDJPk2kyMGkQtoP7QIK8-45" style="edgeStyle=orthogonalEdgeStyle;rounded=0;orthogonalLoop=1;jettySize=auto;html=1;exitX=0;exitY=0.5;exitDx=0;exitDy=0;entryX=1;entryY=0.5;entryDx=0;entryDy=0;entryPerimeter=0;fillColor=#fff2cc;strokeColor=#d6b656;strokeWidth=2;endArrow=blockThin;endFill=1;" edge="1" parent="i0-r0BhkWRjA8PmNq9u2-2" source="vDJPk2kyMGkQtoP7QIK8-44">
          <mxGeometry relative="1" as="geometry">
            <mxPoint x="142.14" y="332" as="targetPoint" />
          </mxGeometry>
        </mxCell>
        <mxCell id="vDJPk2kyMGkQtoP7QIK8-47" value="Inbound / Outbound Delivery" style="text;html=1;align=center;verticalAlign=middle;whiteSpace=wrap;rounded=0;" vertex="1" parent="i0-r0BhkWRjA8PmNq9u2-2">
          <mxGeometry x="490.14" y="320" width="120" height="30" as="geometry" />
        </mxCell>
        <mxCell id="vDJPk2kyMGkQtoP7QIK8-48" value="Goods Movement&lt;div&gt;Stock&lt;/div&gt;" style="text;html=1;align=center;verticalAlign=middle;whiteSpace=wrap;rounded=0;" vertex="1" parent="i0-r0BhkWRjA8PmNq9u2-2">
          <mxGeometry x="570" y="400" width="120" height="30" as="geometry" />
        </mxCell>
        <mxCell id="i0-r0BhkWRjA8PmNq9u2-60" style="edgeStyle=orthogonalEdgeStyle;rounded=0;orthogonalLoop=1;jettySize=auto;html=1;exitX=1;exitY=0.5;exitDx=0;exitDy=0;exitPerimeter=0;entryX=0;entryY=0.5;entryDx=0;entryDy=0;entryPerimeter=0;strokeColor=#9673a6;strokeWidth=2;endArrow=none;endFill=0;fillColor=#e1d5e7;" parent="1" source="vDJPk2kyMGkQtoP7QIK8-25" target="i0-r0BhkWRjA8PmNq9u2-51" edge="1">
          <mxGeometry relative="1" as="geometry">
            <mxPoint x="62.70855595276814" y="504.2917647058821" as="sourcePoint" />
            <mxPoint x="204.97421731123393" y="390" as="targetPoint" />
            <Array as="points">
              <mxPoint x="170" y="447" />
              <mxPoint x="170" y="417" />
            </Array>
          </mxGeometry>
        </mxCell>
        <mxCell id="i0-r0BhkWRjA8PmNq9u2-20" value="REFLEX DEV" style="shape=image;verticalLabelPosition=bottom;verticalAlign=top;imageAspect=0;aspect=fixed;image=data:image/svg+xml,PHN2ZyB4bWxucz0iaHR0cDovL3d3dy53My5vcmcvMjAwMC9zdmciIGZpbGw9Im5vbmUiIHZpZXdCb3g9IjAgMCAyOCAyOCIgaGVpZ2h0PSIyOCIgd2lkdGg9IjI4Ij4mI3hhOzxnIGNsaXAtcGF0aD0idXJsKCNjbGlwMF84NzBfMjg0KSI+JiN4YTs8cGF0aCBmaWxsPSJ1cmwoI3BhaW50MF9saW5lYXJfODcwXzI4NCkiIGQ9Ik0yMy43ODkyIDEuNzIzM0MyNC45OTE0IDEuNzIzMyAyNS45OTQxIDIuMTI1NzkgMjYuNzk3MyAyLjkyNzI2QzI3LjU5ODggMy43Mjg3MyAyNy45OTk1IDQuNzI5NyAyNy45OTk1IDUuOTMzNjVWMjIuMDY2M0MyOC4wMDggMjIuNjIyNSAyNy45MDYgMjMuMTc0OCAyNy42OTkzIDIzLjY5MTJDMjcuNDkyNiAyNC4yMDc2IDI3LjE4NTQgMjQuNjc3OCAyNi43OTU2IDI1LjA3NDVDMjUuOTk0MSAyNS44NzU5IDI0Ljk5MzEgMjYuMjc2NyAyMy43ODkyIDI2LjI3NjdINC4yMTA4N0MzLjAwODY2IDI2LjI3NjcgMi4wMDU5NSAyNS44NzU5IDEuMjAyNzMgMjUuMDc0NUMwLjgxMzE2NCAyNC42Nzc2IDAuNTA2MjkyIDI0LjIwNzQgMC4yOTk5MTggMjMuNjkxQzAuMDkzNTQzNCAyMy4xNzQ2IC0wLjAwODIyNDU4IDIyLjYyMjQgMC4wMDA1MTkyMzEgMjIuMDY2M1Y1LjkzMzY1QzAuMDAwNTE5MjMxIDQuNzMxNDUgMC40MDMwMDUgMy43Mjg3MyAxLjIwNDQ4IDIuOTI1NTFDMi4wMDQyIDIuMTI1NzkgMy4wMDY5MSAxLjcyMzMgNC4yMDkxMiAxLjcyMzNIMjMuNzg5MlpNMi43ODk5MiA3LjMwMjFIMjUuMjEwMVY1LjkzMzY1QzI1LjIxMDEgNC45ODY5NCAyNC43Mzc2IDQuNTEyNyAyMy43ODkyIDQuNTEyN0g0LjIxMDg3QzMuODI4NiA0LjUwNTcyIDMuNDU3NjUgNC42NDI0OSAzLjE3MTQgNC44OTU5NEMyLjkxNzY2IDUuMTQ5NjggMi43ODk5MiA1LjQ5NjE3IDIuNzg5OTIgNS45MzM2NVY3LjMwMDM1VjcuMzAyMVpNMjUuMjEwMSAxMC4xNDU4SDIuNzg5OTJWMjIuMDY2M0MyLjc4OTkyIDIyLjQ2ODggMi45MTc2NiAyMi43OTYgMy4xNzE0IDIzLjA1MTVDMy40NTc5MSAyMy4zMDQ0IDMuODI4ODQgMjMuNDQwNSA0LjIxMDg3IDIzLjQzM0gyMy43ODkyQzI0LjczNTkgMjMuNDMzIDI1LjIxMDEgMjIuOTc4IDI1LjIxMDEgMjIuMDY2M1YxMC4xNDRWMTAuMTQ1OFoiLz4mI3hhOzwvZz4mI3hhOzxkZWZzPiYjeGE7PGxpbmVhckdyYWRpZW50IGdyYWRpZW50VW5pdHM9InVzZXJTcGFjZU9uVXNlIiB5Mj0iMjYuMjc2NyIgeDI9IjE0IiB5MT0iMS43MjMzIiB4MT0iMTQiIGlkPSJwYWludDBfbGluZWFyXzg3MF8yODQiPiYjeGE7PHN0b3Agc3RvcC1jb2xvcj0iIzVCNzM4QiIvPiYjeGE7PHN0b3Agc3RvcC1jb2xvcj0iIzIyMzU0OCIgb2Zmc2V0PSIxIi8+JiN4YTs8L2xpbmVhckdyYWRpZW50PiYjeGE7PGNsaXBQYXRoIGlkPSJjbGlwMF84NzBfMjg0Ij4mI3hhOzxyZWN0IGZpbGw9IndoaXRlIiBoZWlnaHQ9IjI4IiB3aWR0aD0iMjgiLz4mI3hhOzwvY2xpcFBhdGg+JiN4YTs8L2RlZnM+JiN4YTs8L3N2Zz4=" parent="1" vertex="1">
          <mxGeometry x="-389" y="190" width="70" height="70" as="geometry" />
        </mxCell>
        <mxCell id="i0-r0BhkWRjA8PmNq9u2-27" value="SAP S/4 HANA" style="shape=image;verticalLabelPosition=bottom;verticalAlign=top;imageAspect=0;aspect=fixed;image=data:image/svg+xml,PHN2ZyB4bWxucz0iaHR0cDovL3d3dy53My5vcmcvMjAwMC9zdmciIGZpbGw9Im5vbmUiIHZpZXdCb3g9IjAgMCAyOCAyOCIgaGVpZ2h0PSIyOCIgd2lkdGg9IjI4Ij4mI3hhOzxnIGNsaXAtcGF0aD0idXJsKCNjbGlwMF84NzBfMjE4KSI+JiN4YTs8cGF0aCBmaWxsPSJ1cmwoI3BhaW50MF9saW5lYXJfODcwXzIxOCkiIGQ9Ik0yMy43ODkyIDEuNzIzM0MyNC45OTE0IDEuNzIzMyAyNS45OTQxIDIuMTI1NzkgMjYuNzk3MyAyLjkyNzI2QzI3LjU5ODggMy43Mjg3MyAyNy45OTk1IDQuNzI5NyAyNy45OTk1IDUuOTMzNjVWMjIuMDY2M0MyOC4wMDggMjIuNjIyNSAyNy45MDYgMjMuMTc0OCAyNy42OTkzIDIzLjY5MTJDMjcuNDkyNiAyNC4yMDc2IDI3LjE4NTQgMjQuNjc3OCAyNi43OTU2IDI1LjA3NDVDMjUuOTk0MSAyNS44NzU5IDI0Ljk5MzEgMjYuMjc2NyAyMy43ODkyIDI2LjI3NjdINC4yMTA4N0MzLjAwODY2IDI2LjI3NjcgMi4wMDU5NSAyNS44NzU5IDEuMjAyNzMgMjUuMDc0NUMwLjgxMzE2NCAyNC42Nzc2IDAuNTA2MjkyIDI0LjIwNzQgMC4yOTk5MTggMjMuNjkxQzAuMDkzNTQzNCAyMy4xNzQ2IC0wLjAwODIyNDU4IDIyLjYyMjQgMC4wMDA1MTkyMzEgMjIuMDY2M1Y1LjkzMzY1QzAuMDAwNTE5MjMxIDQuNzMxNDUgMC40MDMwMDUgMy43Mjg3MyAxLjIwNDQ4IDIuOTI1NTFDMi4wMDQyIDIuMTI1NzkgMy4wMDY5MSAxLjcyMzMgNC4yMDkxMiAxLjcyMzNIMjMuNzg5MlpNMi43ODk5MiA3LjMwMjFIMjUuMjEwMVY1LjkzMzY1QzI1LjIxMDEgNC45ODY5NCAyNC43Mzc2IDQuNTEyNyAyMy43ODkyIDQuNTEyN0g0LjIxMDg3QzMuODI4NiA0LjUwNTcyIDMuNDU3NjUgNC42NDI0OSAzLjE3MTQgNC44OTU5NEMyLjkxNzY2IDUuMTQ5NjggMi43ODk5MiA1LjQ5NjE3IDIuNzg5OTIgNS45MzM2NVY3LjMwMDM1VjcuMzAyMVpNMjUuMjEwMSAxMC4xNDU4SDIuNzg5OTJWMjIuMDY2M0MyLjc4OTkyIDIyLjQ2ODggMi45MTc2NiAyMi43OTYgMy4xNzE0IDIzLjA1MTVDMy40NTc5MSAyMy4zMDQ0IDMuODI4ODQgMjMuNDQwNSA0LjIxMDg3IDIzLjQzM0gyMy43ODkyQzI0LjczNTkgMjMuNDMzIDI1LjIxMDEgMjIuOTc4IDI1LjIxMDEgMjIuMDY2M1YxMC4xNDRWMTAuMTQ1OFoiLz4mI3hhOzwvZz4mI3hhOzxkZWZzPiYjeGE7PGxpbmVhckdyYWRpZW50IGdyYWRpZW50VW5pdHM9InVzZXJTcGFjZU9uVXNlIiB5Mj0iMTkuMzgyNiIgeDI9IjI2LjU3ODMiIHkxPSI0LjAzMjk5IiB4MT0iMy42MTg3NCIgaWQ9InBhaW50MF9saW5lYXJfODcwXzIxOCI+JiN4YTs8c3RvcCBzdG9wLWNvbG9yPSIjMjM5NUZGIi8+JiN4YTs8c3RvcCBzdG9wLWNvbG9yPSIjMDA1N0QyIiBvZmZzZXQ9IjEiLz4mI3hhOzwvbGluZWFyR3JhZGllbnQ+JiN4YTs8Y2xpcFBhdGggaWQ9ImNsaXAwXzg3MF8yMTgiPiYjeGE7PHJlY3QgZmlsbD0id2hpdGUiIGhlaWdodD0iMjgiIHdpZHRoPSIyOCIvPiYjeGE7PC9jbGlwUGF0aD4mI3hhOzwvZGVmcz4mI3hhOzwvc3ZnPg==" parent="1" vertex="1">
          <mxGeometry x="572.5" y="354" width="100" height="100" as="geometry" />
        </mxCell>
        <mxCell id="i0-r0BhkWRjA8PmNq9u2-29" value="QAL" style="rounded=1;whiteSpace=wrap;html=1;fillColor=#f5f5f5;strokeColor=#666666;fontColor=#333333;" parent="1" vertex="1">
          <mxGeometry x="586" y="400" width="73" height="20" as="geometry" />
        </mxCell>
        <mxCell id="i0-r0BhkWRjA8PmNq9u2-30" value="SAP S/4 HANA" style="shape=image;verticalLabelPosition=bottom;verticalAlign=top;imageAspect=0;aspect=fixed;image=data:image/svg+xml,PHN2ZyB4bWxucz0iaHR0cDovL3d3dy53My5vcmcvMjAwMC9zdmciIGZpbGw9Im5vbmUiIHZpZXdCb3g9IjAgMCAyOCAyOCIgaGVpZ2h0PSIyOCIgd2lkdGg9IjI4Ij4mI3hhOzxnIGNsaXAtcGF0aD0idXJsKCNjbGlwMF84NzBfMjE4KSI+JiN4YTs8cGF0aCBmaWxsPSJ1cmwoI3BhaW50MF9saW5lYXJfODcwXzIxOCkiIGQ9Ik0yMy43ODkyIDEuNzIzM0MyNC45OTE0IDEuNzIzMyAyNS45OTQxIDIuMTI1NzkgMjYuNzk3MyAyLjkyNzI2QzI3LjU5ODggMy43Mjg3MyAyNy45OTk1IDQuNzI5NyAyNy45OTk1IDUuOTMzNjVWMjIuMDY2M0MyOC4wMDggMjIuNjIyNSAyNy45MDYgMjMuMTc0OCAyNy42OTkzIDIzLjY5MTJDMjcuNDkyNiAyNC4yMDc2IDI3LjE4NTQgMjQuNjc3OCAyNi43OTU2IDI1LjA3NDVDMjUuOTk0MSAyNS44NzU5IDI0Ljk5MzEgMjYuMjc2NyAyMy43ODkyIDI2LjI3NjdINC4yMTA4N0MzLjAwODY2IDI2LjI3NjcgMi4wMDU5NSAyNS44NzU5IDEuMjAyNzMgMjUuMDc0NUMwLjgxMzE2NCAyNC42Nzc2IDAuNTA2MjkyIDI0LjIwNzQgMC4yOTk5MTggMjMuNjkxQzAuMDkzNTQzNCAyMy4xNzQ2IC0wLjAwODIyNDU4IDIyLjYyMjQgMC4wMDA1MTkyMzEgMjIuMDY2M1Y1LjkzMzY1QzAuMDAwNTE5MjMxIDQuNzMxNDUgMC40MDMwMDUgMy43Mjg3MyAxLjIwNDQ4IDIuOTI1NTFDMi4wMDQyIDIuMTI1NzkgMy4wMDY5MSAxLjcyMzMgNC4yMDkxMiAxLjcyMzNIMjMuNzg5MlpNMi43ODk5MiA3LjMwMjFIMjUuMjEwMVY1LjkzMzY1QzI1LjIxMDEgNC45ODY5NCAyNC43Mzc2IDQuNTEyNyAyMy43ODkyIDQuNTEyN0g0LjIxMDg3QzMuODI4NiA0LjUwNTcyIDMuNDU3NjUgNC42NDI0OSAzLjE3MTQgNC44OTU5NEMyLjkxNzY2IDUuMTQ5NjggMi43ODk5MiA1LjQ5NjE3IDIuNzg5OTIgNS45MzM2NVY3LjMwMDM1VjcuMzAyMVpNMjUuMjEwMSAxMC4xNDU4SDIuNzg5OTJWMjIuMDY2M0MyLjc4OTkyIDIyLjQ2ODggMi45MTc2NiAyMi43OTYgMy4xNzE0IDIzLjA1MTVDMy40NTc5MSAyMy4zMDQ0IDMuODI4ODQgMjMuNDQwNSA0LjIxMDg3IDIzLjQzM0gyMy43ODkyQzI0LjczNTkgMjMuNDMzIDI1LjIxMDEgMjIuOTc4IDI1LjIxMDEgMjIuMDY2M1YxMC4xNDRWMTAuMTQ1OFoiLz4mI3hhOzwvZz4mI3hhOzxkZWZzPiYjeGE7PGxpbmVhckdyYWRpZW50IGdyYWRpZW50VW5pdHM9InVzZXJTcGFjZU9uVXNlIiB5Mj0iMTkuMzgyNiIgeDI9IjI2LjU3ODMiIHkxPSI0LjAzMjk5IiB4MT0iMy42MTg3NCIgaWQ9InBhaW50MF9saW5lYXJfODcwXzIxOCI+JiN4YTs8c3RvcCBzdG9wLWNvbG9yPSIjMjM5NUZGIi8+JiN4YTs8c3RvcCBzdG9wLWNvbG9yPSIjMDA1N0QyIiBvZmZzZXQ9IjEiLz4mI3hhOzwvbGluZWFyR3JhZGllbnQ+JiN4YTs8Y2xpcFBhdGggaWQ9ImNsaXAwXzg3MF8yMTgiPiYjeGE7PHJlY3QgZmlsbD0id2hpdGUiIGhlaWdodD0iMjgiIHdpZHRoPSIyOCIvPiYjeGE7PC9jbGlwUGF0aD4mI3hhOzwvZGVmcz4mI3hhOzwvc3ZnPg==" parent="1" vertex="1">
          <mxGeometry x="572.5" y="576" width="100" height="100" as="geometry" />
        </mxCell>
        <mxCell id="i0-r0BhkWRjA8PmNq9u2-31" value="PRD" style="rounded=1;whiteSpace=wrap;html=1;fillColor=#f8cecc;strokeColor=#b85450;" parent="1" vertex="1">
          <mxGeometry x="586" y="626" width="73" height="20" as="geometry" />
        </mxCell>
        <mxCell id="i0-r0BhkWRjA8PmNq9u2-45" style="edgeStyle=none;rounded=0;orthogonalLoop=1;jettySize=auto;html=1;fontColor=#BFBFBF;fontSize=13;strokeColor=#9673a6;endSize=5;strokeWidth=2;endArrow=blockThin;endFill=1;exitX=1;exitY=0.5;exitDx=0;exitDy=0;flowAnimation=0;fillColor=#e1d5e7;entryX=0.042;entryY=0.633;entryDx=0;entryDy=0;entryPerimeter=0;" parent="1" source="i0-r0BhkWRjA8PmNq9u2-54" target="i0-r0BhkWRjA8PmNq9u2-27" edge="1">
          <mxGeometry relative="1" as="geometry">
            <mxPoint x="526" y="388" as="sourcePoint" />
            <mxPoint x="570" y="415" as="targetPoint" />
          </mxGeometry>
        </mxCell>
        <mxCell id="i0-r0BhkWRjA8PmNq9u2-46" style="edgeStyle=none;rounded=0;orthogonalLoop=1;jettySize=auto;html=1;fontColor=#BFBFBF;fontSize=13;strokeColor=#9673a6;endSize=5;strokeWidth=2;endArrow=blockThin;endFill=1;exitX=1;exitY=0.5;exitDx=0;exitDy=0;entryX=0;entryY=0.5;entryDx=0;entryDy=0;flowAnimation=0;fillColor=#e1d5e7;" parent="1" source="i0-r0BhkWRjA8PmNq9u2-54" target="i0-r0BhkWRjA8PmNq9u2-30" edge="1">
          <mxGeometry relative="1" as="geometry">
            <mxPoint x="526" y="388" as="sourcePoint" />
            <mxPoint x="535.41" y="317" as="targetPoint" />
          </mxGeometry>
        </mxCell>
        <mxCell id="i0-r0BhkWRjA8PmNq9u2-53" value="Firewall" style="text;strokeColor=none;align=center;fillColor=none;html=1;verticalAlign=middle;whiteSpace=wrap;rounded=0;fontStyle=1" parent="1" vertex="1">
          <mxGeometry x="309" y="-10" width="60" height="30" as="geometry" />
        </mxCell>
        <mxCell id="i0-r0BhkWRjA8PmNq9u2-54" value="Cloud&#xa; Connector" style="shape=image;verticalLabelPosition=bottom;verticalAlign=top;aspect=fixed;imageAspect=0;image=data:image/svg+xml,PHN2ZyB4bWxucz0iaHR0cDovL3d3dy53My5vcmcvMjAwMC9zdmciIGZpbGw9Im5vbmUiIHZpZXdCb3g9IjAgMCAxNiAxNiIgaGVpZ2h0PSIxNiIgd2lkdGg9IjE2Ij4mI3hhOzxjaXJjbGUgc3Ryb2tlLXdpZHRoPSIwLjI4NTcwOCIgc3Ryb2tlPSIjRDVEQUREIiBmaWxsPSJ1cmwoI3BhaW50MF9saW5lYXJfMzg5MF8yMTUzNSkiIHI9IjcuODU2OTYiIGN5PSI3Ljk5NzM4IiBjeD0iNy45OTczOCIvPiYjeGE7PGcgY2xpcC1wYXRoPSJ1cmwoI2NsaXAwXzM4OTBfMjE1MzUpIj4mI3hhOzxwYXRoIGZpbGw9InVybCgjcGFpbnQxX2xpbmVhcl8zODkwXzIxNTM1KSIgZD0iTTcuODc5MTggOC42NDM4MUM3Ljk2MzM1IDguNjIxNDkgOC4wNDEzMyA4LjU3NDQ0IDguMTEzMTIgOC41MDI2NUM4LjIxNzI5IDguMzk4NDggOC4yNjkzNyA4LjI4MTI5IDguMjY5MzcgOC4xNTEwOEM4LjI2OTM3IDguMDIwODggOC4yMTcyOSA3LjkwMzY5IDguMTEzMTIgNy43OTk1Mkw3LjIxNDY5IDYuOTIwNjJMNy41MjcxOSA2LjYwODEyTDguNDA2MDkgNy41MDY1NkM4LjUxMDI2IDcuNjEwNzIgOC42Mjc0NSA3LjY2MjgxIDguNzU3NjYgNy42NjI4MUM4Ljg4Nzg2IDcuNjYyODEgOS4wMDUwNSA3LjYxMDcyIDkuMTA5MjIgNy41MDY1NkM5LjIxMzM5IDcuNDAyMzkgOS4yNjU0NyA3LjI4NTIgOS4yNjU0NyA3LjE1NDk5QzkuMjY1NDcgNy4wMjQ3OSA5LjIxMzM5IDYuOTA3NiA5LjEwOTIyIDYuODAzNDNMOC4yMTA3OCA1LjkyNDUzTDguNjIwOTQgNS41MTQzOEM4LjcxMjA4IDUuNDIzMjMgOC43NTc2NiA1LjMxMjU1IDguNzU3NjYgNS4xODIzNUM4Ljc1NzY2IDUuMDM5MTIgOC43MTIwOCA0LjkyMTkzIDguNjIwOTQgNC44MzA3OUw4LjE3MTcyIDQuMzgxNTdDNy43OTQxMSA0LjAwMzk3IDcuMzUxNCAzLjgwMjE0IDYuODQzNTkgMy43NzYxQzYuMzM1NzggMy43NTAwNiA1Ljg4MDA1IDMuODk5OCA1LjQ3NjQgNC4yMjUzMkw0LjIzNzMxIDIuOTUzODZDNC4xMzMxNCAyLjg0OTY5IDQuMDE1OTUgMi43OTc2MSAzLjg4NTc0IDIuNzk3NjFDMy43Njg1NSAyLjc5NzYxIDMuNjU3ODggMi44NDk2OSAzLjU1MzcxIDIuOTUzODZDMy40NDk1NCAzLjA1ODAyIDMuMzk3NDYgMy4xNzUyMSAzLjM5NzQ2IDMuMzA1NDJDMy4zOTc0NiAzLjQzNTYzIDMuNDQ5NTQgMy41NTI4MSAzLjU1MzcxIDMuNjU2OThMNC43OTI4MSA0LjkyODQ0QzQuNDkzMzMgNS4zMzIwOSA0LjM1NjYxIDUuNzgxMyA0LjM4MjY1IDYuMjc2MDlDNC40MDg2OSA2Ljc1Nzg2IDQuNjEwNTIgNy4xODc1NSA0Ljk4ODEyIDcuNTY1MTVMNS4zNTkyMSA3LjkyMDFDNS41ODIzNyA3Ljg1Mzg1IDUuODEzMjMgNy44MjAxOSA2LjA0ODk4IDcuODIwMTlDNi41NjI2OCA3LjgyMDE5IDcuMDM3OSA3Ljk3OTkzIDcuNDUyNTQgOC4yNzEzQzcuNjA5ODYgOC4zODE4NSA3Ljc1MjAzIDguNTA2NTQgNy44NzkxOCA4LjY0MzgxWiIvPiYjeGE7PHBhdGggZmlsbD0idXJsKCNwYWludDJfbGluZWFyXzM4OTBfMjE1MzUpIiBkPSJNMTMuMzY2MiAxMi4yNTA3QzEzLjM2NjIgMTIuMTMzNSAxMy4zMTQyIDEyLjAyMjggMTMuMjEgMTEuOTE4N0wxMS44MjMzIDEwLjUxMjRDMTIuMTQ4OCAxMC4xMjE4IDEyLjI5ODUgOS42ODU2MiAxMi4yNzI1IDkuMjAzODVDMTIuMjU5NSA4LjcwOTA2IDEyLjA2NDIgOC4yNzI4NiAxMS42ODY2IDcuODk1MjZMMTEuMjM3MyA3LjQ0NjA0QzExLjEzMzIgNy4zNDE4OCAxMS4wMTYgNy4yODk3OSAxMC44ODU4IDcuMjg5NzlDMTAuNzU1NiA3LjI4OTc5IDEwLjYzODQgNy4zNDE4OCAxMC41MzQyIDcuNDQ2MDRMOC43MTYzMSA5LjI2Mzk2QzguODY2NjcgOS4zNzc0NSA5LjAwMTk4IDkuNTA4OTIgOS4xMjEzMiA5LjY1NjVDOS4zMDkyIDkuODgyMDIgOS40NTAxMSAxMC4xMzU3IDkuNTQ4MTUgMTAuNDA4QzkuNjUyODMgMTAuNjk4OCA5LjcwMDQ4IDExLjAwMDkgOS43MDA0OCAxMS4zMDZDOS43MDA0OCAxMS40NDM4IDkuNjkwNTMgMTEuNTgwNiA5LjY3MDMgMTEuNzE1N0M5LjcwNDA3IDExLjcxOSA5LjczODE0IDExLjcyMTYgOS43NzI1MSAxMS43MjM0QzEwLjI4MDMgMTEuNzM2NCAxMC43MzYgMTEuNTY3MSAxMS4xMzk3IDExLjIxNTZMMTIuNTI2NCAxMi42MDIzQzEyLjYzMDYgMTIuNzA2NCAxMi43NDEyIDEyLjc1ODUgMTIuODU4NCAxMi43NTg1QzEyLjk4ODYgMTIuNzU4NSAxMy4xMDU4IDEyLjcwNjQgMTMuMjEgMTIuNjAyM0MxMy4zMTQyIDEyLjQ5ODEgMTMuMzY2MiAxMi4zODA5IDEzLjM2NjIgMTIuMjUwN1oiLz4mI3hhOzxwYXRoIGZpbGw9InVybCgjcGFpbnQzX2xpbmVhcl8zODkwXzIxNTM1KSIgZD0iTTQuNTI2NDUgMTIuNzk3N0g3LjM1NDExQzcuNTQwNTUgMTIuNzk3NyA3LjcxNjYzIDEyLjc1OTcgNy44ODIzNSAxMi42ODM3QzguMDQ4MDggMTIuNjA3OCA4LjE4OTYzIDEyLjUwNDIgOC4zMDcwMiAxMi4zNzNDOC40MzEzMSAxMi4yMzQ5IDguNTI3OTkgMTIuMDc2MSA4LjU5NzA0IDExLjg5NjZDOC42NjYwOSAxMS43MTAxIDguNzAwNjEgMTEuNTEzMyA4LjcwMDYxIDExLjMwNjJDOC43MDA2MSAxMS4xMDU5IDguNjY5NTQgMTAuOTE5NSA4LjYwNzQgMTAuNzQ2OEM4LjU0NTI1IDEwLjU3NDIgOC40NTg5MyAxMC40MjIzIDguMzQ4NDUgMTAuMjkxMUM4LjIzNzk3IDEwLjE1MyA4LjEwNjc3IDEwLjA0MjUgNy45NTQ4NiA5Ljk1OTY2QzcuODAyOTUgOS44NzY4IDcuNjQwNjcgOS44Mjg0NiA3LjQ2ODA1IDkuODE0NjVDNy4zMjk5NCA5LjUxMDgzIDcuMTMzMTUgOS4yNjkxNSA2Ljg3NzY2IDkuMDg5NjFDNi42MjIxNyA4LjkxMDA4IDYuMzQ1OTYgOC44MjAzMSA2LjA0OTA0IDguODIwMzFDNS44NTU2OSA4LjgyMDMxIDUuNjY5MjUgOC44NTgyOSA1LjQ4OTcyIDguOTM0MjVDNS4zMTcwOSA5LjAxMDIgNS4xNjE3MyA5LjExMzc4IDUuMDIzNjIgOS4yNDQ5OEM0Ljg4NTUyIDkuMzc2MTggNC43NzE1OSA5LjUzNSA0LjY4MTgyIDkuNzIxNDNDNC41OTIwNSA5LjkwMDk3IDQuNTI5OTEgMTAuMDk0MyA0LjQ5NTM4IDEwLjMwMTVDNC4zNDM0NyAxMC4zMDE1IDQuMTk4NDYgMTAuMzM2IDQuMDYwMzYgMTAuNDA1QzMuOTI5MTYgMTAuNDY3MiAzLjgxNTIyIDEwLjU1NyAzLjcxODU1IDEwLjY3NDNDMy42MjE4OCAxMC43ODQ4IDMuNTQyNDcgMTAuOTE2IDMuNDgwMzIgMTEuMDY3OUMzLjQyNTA4IDExLjIxOTkgMy4zOTc0NiAxMS4zNzg3IDMuMzk3NDYgMTEuNTQ0NEMzLjM5NzQ2IDExLjcxNyAzLjQyNTA4IDExLjg3OTMgMy40ODAzMiAxMi4wMzEyQzMuNTQyNDcgMTIuMTgzMSAzLjYyNTMzIDEyLjMxNzggMy43Mjg5MSAxMi40MzUyQzMuODMyNDkgMTIuNTQ1NiAzLjk1MzMzIDEyLjYzNTQgNC4wOTE0MyAxMi43MDQ1QzQuMjI5NTMgMTIuNzY2NiA0LjM3NDU0IDEyLjc5NzcgNC41MjY0NSAxMi43OTc3WiIvPiYjeGE7PC9nPiYjeGE7PGRlZnM+JiN4YTs8bGluZWFyR3JhZGllbnQgZ3JhZGllbnRVbml0cz0idXNlclNwYWNlT25Vc2UiIHkyPSIxNC43NDUzIiB4Mj0iMTMuNjg1NCIgeTE9IjIuMjY4NDUiIHgxPSIxLjQ0ODQ4IiBpZD0icGFpbnQwX2xpbmVhcl8zODkwXzIxNTM1Ij4mI3hhOzxzdG9wIHN0b3AtY29sb3I9IndoaXRlIi8+JiN4YTs8c3RvcCBzdG9wLWNvbG9yPSIjRUFFQ0VFIiBvZmZzZXQ9IjEiLz4mI3hhOzwvbGluZWFyR3JhZGllbnQ+JiN4YTs8bGluZWFyR3JhZGllbnQgZ3JhZGllbnRVbml0cz0idXNlclNwYWNlT25Vc2UiIHkyPSI3Ljc4MjAyIiB4Mj0iOC4zNzA1NSIgeTE9IjMuNjcxODciIHgxPSI0LjI3NzEiIGlkPSJwYWludDFfbGluZWFyXzM4OTBfMjE1MzUiPiYjeGE7PHN0b3Agc3RvcC1jb2xvcj0iIzAxOTVGRiIvPiYjeGE7PHN0b3Agc3RvcC1jb2xvcj0iIzExNDdFOSIgb2Zmc2V0PSIwLjk5MTAyOCIvPiYjeGE7PC9saW5lYXJHcmFkaWVudD4mI3hhOzxsaW5lYXJHcmFkaWVudCBncmFkaWVudFVuaXRzPSJ1c2VyU3BhY2VPblVzZSIgeTI9IjExLjMyMjQiIHgyPSIxMy4xOTI5IiB5MT0iOC4xMDc2MSIgeDE9IjkuNDEzMzUiIGlkPSJwYWludDJfbGluZWFyXzM4OTBfMjE1MzUiPiYjeGE7PHN0b3Agc3RvcC1jb2xvcj0iIzAxOTVGRiIvPiYjeGE7PHN0b3Agc3RvcC1jb2xvcj0iIzExNDdFOSIgb2Zmc2V0PSIwLjk5MTAyOCIvPiYjeGE7PC9saW5lYXJHcmFkaWVudD4mI3hhOzxsaW5lYXJHcmFkaWVudCBncmFkaWVudFVuaXRzPSJ1c2VyU3BhY2VPblVzZSIgeTI9IjEyLjk3OTQiIHgyPSI2Ljg1MDQ4IiB5MT0iOS40MDU0NyIgeDE9IjQuMTgxNSIgaWQ9InBhaW50M19saW5lYXJfMzg5MF8yMTUzNSI+JiN4YTs8c3RvcCBzdG9wLWNvbG9yPSIjMTM0OEZGIi8+JiN4YTs8c3RvcCBzdG9wLWNvbG9yPSIjMDYyMzhEIiBvZmZzZXQ9IjEiLz4mI3hhOzwvbGluZWFyR3JhZGllbnQ+JiN4YTs8Y2xpcFBhdGggaWQ9ImNsaXAwXzM4OTBfMjE1MzUiPiYjeGE7PHJlY3QgdHJhbnNmb3JtPSJ0cmFuc2xhdGUoMy4zOTc0NiAyLjc5NzYxKSIgZmlsbD0id2hpdGUiIGhlaWdodD0iMTAiIHdpZHRoPSIxMCIvPiYjeGE7PC9jbGlwUGF0aD4mI3hhOzwvZGVmcz4mI3hhOzwvc3ZnPg==;fontStyle=0;fontSize=12;fontColor=#1D2D3E" parent="1" vertex="1">
          <mxGeometry x="432" y="389.84999999999997" width="54.29" height="54.29" as="geometry" />
        </mxCell>
        <mxCell id="i0-r0BhkWRjA8PmNq9u2-57" value="" style="endArrow=blockThin;html=1;rounded=0;strokeColor=#9673a6;strokeWidth=2;exitX=1.015;exitY=0.505;exitDx=0;exitDy=0;exitPerimeter=0;endFill=1;endSize=4;startSize=4;entryX=0;entryY=0.5;entryDx=0;entryDy=0;fillColor=#e1d5e7;" parent="1" source="i0-r0BhkWRjA8PmNq9u2-55" target="i0-r0BhkWRjA8PmNq9u2-54" edge="1">
          <mxGeometry width="50" height="50" relative="1" as="geometry">
            <mxPoint x="367.14" y="416.95000000000005" as="sourcePoint" />
            <mxPoint x="499.0000000000001" y="397.855" as="targetPoint" />
          </mxGeometry>
        </mxCell>
        <mxCell id="i0-r0BhkWRjA8PmNq9u2-63" style="edgeStyle=orthogonalEdgeStyle;rounded=0;orthogonalLoop=1;jettySize=auto;html=1;exitX=1;exitY=0.5;exitDx=0;exitDy=0;entryX=0;entryY=0.5;entryDx=0;entryDy=0;entryPerimeter=0;strokeWidth=2;endArrow=blockThin;endFill=1;strokeColor=#82b366;startArrow=blockThin;startFill=1;fillColor=#d5e8d4;" parent="1" source="i0-r0BhkWRjA8PmNq9u2-20" target="vDJPk2kyMGkQtoP7QIK8-4" edge="1">
          <mxGeometry relative="1" as="geometry">
            <mxPoint x="38.11999999999989" y="193.58941176470626" as="targetPoint" />
          </mxGeometry>
        </mxCell>
        <mxCell id="dXTzPp-jMn9TThO5otRM-7" value="&lt;font color=&quot;#475f75&quot; size=&quot;1&quot;&gt;&lt;b style=&quot;&quot;&gt;SFTP&lt;/b&gt;&lt;/font&gt;" style="rounded=1;whiteSpace=wrap;html=1;arcSize=50;strokeColor=#475f75;fillColor=default;strokeWidth=1.5;" parent="1" vertex="1">
          <mxGeometry x="-157" y="219" width="57" height="16" as="geometry" />
        </mxCell>
        <mxCell id="vDJPk2kyMGkQtoP7QIK8-1" value="SAP S/4 HANA" style="shape=image;verticalLabelPosition=bottom;verticalAlign=top;imageAspect=0;aspect=fixed;image=data:image/svg+xml,PHN2ZyB4bWxucz0iaHR0cDovL3d3dy53My5vcmcvMjAwMC9zdmciIGZpbGw9Im5vbmUiIHZpZXdCb3g9IjAgMCAyOCAyOCIgaGVpZ2h0PSIyOCIgd2lkdGg9IjI4Ij4mI3hhOzxnIGNsaXAtcGF0aD0idXJsKCNjbGlwMF84NzBfMjE4KSI+JiN4YTs8cGF0aCBmaWxsPSJ1cmwoI3BhaW50MF9saW5lYXJfODcwXzIxOCkiIGQ9Ik0yMy43ODkyIDEuNzIzM0MyNC45OTE0IDEuNzIzMyAyNS45OTQxIDIuMTI1NzkgMjYuNzk3MyAyLjkyNzI2QzI3LjU5ODggMy43Mjg3MyAyNy45OTk1IDQuNzI5NyAyNy45OTk1IDUuOTMzNjVWMjIuMDY2M0MyOC4wMDggMjIuNjIyNSAyNy45MDYgMjMuMTc0OCAyNy42OTkzIDIzLjY5MTJDMjcuNDkyNiAyNC4yMDc2IDI3LjE4NTQgMjQuNjc3OCAyNi43OTU2IDI1LjA3NDVDMjUuOTk0MSAyNS44NzU5IDI0Ljk5MzEgMjYuMjc2NyAyMy43ODkyIDI2LjI3NjdINC4yMTA4N0MzLjAwODY2IDI2LjI3NjcgMi4wMDU5NSAyNS44NzU5IDEuMjAyNzMgMjUuMDc0NUMwLjgxMzE2NCAyNC42Nzc2IDAuNTA2MjkyIDI0LjIwNzQgMC4yOTk5MTggMjMuNjkxQzAuMDkzNTQzNCAyMy4xNzQ2IC0wLjAwODIyNDU4IDIyLjYyMjQgMC4wMDA1MTkyMzEgMjIuMDY2M1Y1LjkzMzY1QzAuMDAwNTE5MjMxIDQuNzMxNDUgMC40MDMwMDUgMy43Mjg3MyAxLjIwNDQ4IDIuOTI1NTFDMi4wMDQyIDIuMTI1NzkgMy4wMDY5MSAxLjcyMzMgNC4yMDkxMiAxLjcyMzNIMjMuNzg5MlpNMi43ODk5MiA3LjMwMjFIMjUuMjEwMVY1LjkzMzY1QzI1LjIxMDEgNC45ODY5NCAyNC43Mzc2IDQuNTEyNyAyMy43ODkyIDQuNTEyN0g0LjIxMDg3QzMuODI4NiA0LjUwNTcyIDMuNDU3NjUgNC42NDI0OSAzLjE3MTQgNC44OTU5NEMyLjkxNzY2IDUuMTQ5NjggMi43ODk5MiA1LjQ5NjE3IDIuNzg5OTIgNS45MzM2NVY3LjMwMDM1VjcuMzAyMVpNMjUuMjEwMSAxMC4xNDU4SDIuNzg5OTJWMjIuMDY2M0MyLjc4OTkyIDIyLjQ2ODggMi45MTc2NiAyMi43OTYgMy4xNzE0IDIzLjA1MTVDMy40NTc5MSAyMy4zMDQ0IDMuODI4ODQgMjMuNDQwNSA0LjIxMDg3IDIzLjQzM0gyMy43ODkyQzI0LjczNTkgMjMuNDMzIDI1LjIxMDEgMjIuOTc4IDI1LjIxMDEgMjIuMDY2M1YxMC4xNDRWMTAuMTQ1OFoiLz4mI3hhOzwvZz4mI3hhOzxkZWZzPiYjeGE7PGxpbmVhckdyYWRpZW50IGdyYWRpZW50VW5pdHM9InVzZXJTcGFjZU9uVXNlIiB5Mj0iMTkuMzgyNiIgeDI9IjI2LjU3ODMiIHkxPSI0LjAzMjk5IiB4MT0iMy42MTg3NCIgaWQ9InBhaW50MF9saW5lYXJfODcwXzIxOCI+JiN4YTs8c3RvcCBzdG9wLWNvbG9yPSIjMjM5NUZGIi8+JiN4YTs8c3RvcCBzdG9wLWNvbG9yPSIjMDA1N0QyIiBvZmZzZXQ9IjEiLz4mI3hhOzwvbGluZWFyR3JhZGllbnQ+JiN4YTs8Y2xpcFBhdGggaWQ9ImNsaXAwXzg3MF8yMTgiPiYjeGE7PHJlY3QgZmlsbD0id2hpdGUiIGhlaWdodD0iMjgiIHdpZHRoPSIyOCIvPiYjeGE7PC9jbGlwUGF0aD4mI3hhOzwvZGVmcz4mI3hhOzwvc3ZnPg==" vertex="1" parent="1">
          <mxGeometry x="572.5" y="95" width="100" height="100" as="geometry" />
        </mxCell>
        <mxCell id="vDJPk2kyMGkQtoP7QIK8-2" value="DEV" style="rounded=1;whiteSpace=wrap;html=1;fillColor=#dae8fc;strokeColor=#6c8ebf;" vertex="1" parent="1">
          <mxGeometry x="586" y="141" width="73" height="20" as="geometry" />
        </mxCell>
        <mxCell id="vDJPk2kyMGkQtoP7QIK8-9" style="edgeStyle=orthogonalEdgeStyle;rounded=0;orthogonalLoop=1;jettySize=auto;html=1;exitX=0;exitY=0.5;exitDx=0;exitDy=0;entryX=1;entryY=0.5;entryDx=0;entryDy=0;fillColor=#fff2cc;strokeColor=#d6b656;strokeWidth=2;endArrow=none;endFill=0;" edge="1" parent="1" source="vDJPk2kyMGkQtoP7QIK8-1" target="vDJPk2kyMGkQtoP7QIK8-6">
          <mxGeometry relative="1" as="geometry">
            <mxPoint x="484" y="146" as="sourcePoint" />
            <mxPoint x="250" y="140" as="targetPoint" />
            <Array as="points">
              <mxPoint x="362" y="145" />
            </Array>
          </mxGeometry>
        </mxCell>
        <mxCell id="vDJPk2kyMGkQtoP7QIK8-11" style="edgeStyle=none;rounded=0;orthogonalLoop=1;jettySize=auto;html=1;fontColor=#BFBFBF;fontSize=13;strokeColor=#9673a6;endSize=5;strokeWidth=2;endArrow=blockThin;endFill=1;exitX=1;exitY=0.5;exitDx=0;exitDy=0;entryX=0;entryY=0.5;entryDx=0;entryDy=0;flowAnimation=0;fillColor=#e1d5e7;" edge="1" parent="1" source="i0-r0BhkWRjA8PmNq9u2-54" target="vDJPk2kyMGkQtoP7QIK8-1">
          <mxGeometry relative="1" as="geometry">
            <mxPoint x="550" y="359" as="sourcePoint" />
            <mxPoint x="650" y="300" as="targetPoint" />
          </mxGeometry>
        </mxCell>
        <mxCell id="vDJPk2kyMGkQtoP7QIK8-12" value="Inbound / Outbound Delivery" style="text;html=1;align=center;verticalAlign=middle;whiteSpace=wrap;rounded=0;" vertex="1" parent="1">
          <mxGeometry x="410" y="130" width="120" height="30" as="geometry" />
        </mxCell>
        <mxCell id="vDJPk2kyMGkQtoP7QIK8-14" value="Inboud / Outbound Delivery&lt;div&gt;Materials&lt;/div&gt;&lt;div&gt;Supplier&lt;/div&gt;&lt;div&gt;Recipient&lt;/div&gt;" style="text;html=1;align=center;verticalAlign=middle;whiteSpace=wrap;rounded=0;" vertex="1" parent="1">
          <mxGeometry x="-310" y="170" width="155" height="49" as="geometry" />
        </mxCell>
        <mxCell id="vDJPk2kyMGkQtoP7QIK8-13" value="Goods Movement&lt;div&gt;Stock&lt;/div&gt;" style="text;html=1;align=center;verticalAlign=middle;whiteSpace=wrap;rounded=0;" vertex="1" parent="1">
          <mxGeometry x="420" y="210.09" width="120" height="30" as="geometry" />
        </mxCell>
        <mxCell id="vDJPk2kyMGkQtoP7QIK8-25" value="Cloud &#xa;Integration" style="shape=image;verticalLabelPosition=bottom;verticalAlign=top;aspect=fixed;imageAspect=0;image=data:image/svg+xml,PHN2ZyB4bWxucz0iaHR0cDovL3d3dy53My5vcmcvMjAwMC9zdmciIGZpbGw9Im5vbmUiIHZpZXdCb3g9IjAgMCAxNiAxNiIgaGVpZ2h0PSIxNiIgd2lkdGg9IjE2Ij4mI3hhOzxjaXJjbGUgc3Ryb2tlLXdpZHRoPSIwLjI4NTcwOCIgc3Ryb2tlPSIjRDVEQUREIiBmaWxsPSJ1cmwoI3BhaW50MF9saW5lYXJfMzUxNF80MDI3MSkiIHI9IjcuODU2OTYiIGN5PSI3Ljk5NzYyIiBjeD0iNy45OTc2MiIvPiYjeGE7PGcgY2xpcC1wYXRoPSJ1cmwoI2NsaXAwXzM1MTRfNDAyNzEpIj4mI3hhOzxwYXRoIGZpbGw9InVybCgjcGFpbnQxX2xpbmVhcl8zNTE0XzQwMjcxKSIgZD0iTTcuMjYwOTUgMy4zOTc3MUM2LjAxNzkzIDMuMzk3NzEgNS4xMzQ3NyA0LjQwOTUzIDQuOTg3NjMgNS40NjU4OUM0LjU4Nzc5IDUuNDg5NjkgNC4yMzQ3MyA1LjYzOTk2IDMuOTYwNTEgNS44OTIzNkMzLjU4OTU1IDYuMjMzODEgMy4zOTc5NSA2LjcyOTQzIDMuMzk3OTUgNy4yNTIwOUMzLjM5Nzk1IDcuNzM3ODIgMy41NDUyOSA4LjE5Njk0IDMuODc2MDggOC41MzYzOUM0LjIwOTEgOC44NzgxMyA0LjY4MTg5IDkuMDUxMjQgNS4yMzg1OCA5LjA1MTI0SDYuMjE4NDFDNi4zMjIwOCA4LjQ4MTQyIDYuODIwOTIgOC4wNDkzOCA3LjQyMDY2IDguMDQ5MzhINy43NTc4NEM3Ljc2OTc0IDguMDQ5MzggNy43ODE2IDguMDQ5NTUgNy43OTM0MSA4LjA0OTg4QzcuNzc0NjQgNy45NjQ3NSA3Ljc2NDc0IDcuODc2MjkgNy43NjQ3NCA3Ljc4NTUxVjcuNDQ2NTFDNy43NjQ3NCA2Ljc3MTYgOC4zMTE4NyA2LjIyNDQ3IDguOTg2NzggNi4yMjQ0N0g5LjMyMzk1QzkuOTk4ODYgNi4yMjQ0NyAxMC41NDYgNi43NzE2IDEwLjU0NiA3LjQ0NjUxVjcuNzI5NDJDMTAuNzA3MyA3LjUzOTc2IDEwLjkyNTUgNy40IDExLjE3NDIgNy4zMzY1M0MxMS4xOTggNy4yMDI4NSAxMS4yMTA0IDcuMDYyNiAxMS4yMTA0IDYuOTE2MjJDMTEuMjEwNCA1Ljc1OTgzIDEwLjM4NCA0Ljg3MTE2IDkuMzg5MDEgNC43NzcxN0M4Ljk5MDE3IDMuOTUyNDIgOC4yNDk4MiAzLjM5NzcxIDcuMjYwOTUgMy4zOTc3MVoiLz4mI3hhOzxwYXRoIGZpbGw9InVybCgjcGFpbnQyX3JhZGlhbF8zNTE0XzQwMjcxKSIgZD0iTTkuMzIzNyA2LjcyNDYxQzkuNzIyNDcgNi43MjQ2MSAxMC4wNDU3IDcuMDQ3ODggMTAuMDQ1NyA3LjQ0NjY1VjcuNzg1NjVDMTAuMDQ1NyA4LjAwODk1IDkuOTQ0MzcgOC4yMDg1NyA5Ljc4NTE0IDguMzQxMDJMOS45NTIyMyA5LjAwMzY2SDkuOTc2MzNDMTAuMDQ2MSA5LjAwMzY2IDEwLjExMTggOS4wMjExIDEwLjE2OTMgOS4wNTE4N0wxMC43NTUgOC43NTQ2OFY4LjUyMDg3QzEwLjc1NSA4LjEyMjEgMTEuMDc4MyA3Ljc5ODgzIDExLjQ3NzEgNy43OTg4M0gxMS44MTQyQzEyLjIxMyA3Ljc5ODgzIDEyLjUzNjMgOC4xMjIxIDEyLjUzNjMgOC41MjA4N1Y4Ljg1OTg3QzEyLjUzNjMgOS4yNTg2NCAxMi4yMTMgOS41ODE5IDExLjgxNDIgOS41ODE5SDExLjQ3NzFDMTEuMjcwMiA5LjU4MTkgMTEuMDgzNyA5LjQ5NDkzIDEwLjk1MjEgOS4zNTU1NUwxMC4zODU5IDkuNjQyODFWOS43MTQ0TDEwLjM4NzggOS43MTE1MUwxMC44MTY4IDkuOTkyNjNDMTAuOTQwNSA5Ljg5MzIyIDExLjA5NzcgOS44MzM3NCAxMS4yNjg4IDkuODMzNzRIMTEuNzE5OEMxMi4xMTg2IDkuODMzNzQgMTIuNDQxOCAxMC4xNTcgMTIuNDQxOCAxMC41NTU4VjExLjAwODhDMTIuNDQxOCAxMS40MDc2IDEyLjExODYgMTEuNzMwOSAxMS43MTk4IDExLjczMDlIMTEuMjY4OEMxMC44NyAxMS43MzA5IDEwLjU0NjcgMTEuNDA3NiAxMC41NDY3IDExLjAwODhWMTAuNTYyOUwxMC4xNTk5IDEwLjMwOTRDMTAuMTA0NyAxMC4zMzcyIDEwLjA0MjMgMTAuMzUyOCA5Ljk3NjMzIDEwLjM1MjhIOS42NDI3NEw4Ljk3MzI1IDExLjI1MThDOS4wMjIwNCAxMS4zNDkgOS4wNDk1IDExLjQ1ODggOS4wNDk1IDExLjU3NTFWMTEuOTE0MUM5LjA0OTUgMTIuMzEyOCA4LjcyNjIzIDEyLjYzNjEgOC4zMjc0NiAxMi42MzYxSDcuOTkwMjlDNy41OTE1MiAxMi42MzYxIDcuMjY4MjUgMTIuMzEyOCA3LjI2ODI1IDExLjkxNDFMNy4yNjgyNSAxMS41NzUxQzcuMjY4MjUgMTEuMTc2MyA3LjU5MTUyIDEwLjg1MyA3Ljk5MDI5IDEwLjg1M0g4LjMyNzQ2QzguMzc5NDYgMTAuODUzIDguNDMwMTggMTAuODU4NSA4LjQ3OTA2IDEwLjg2OUw5LjA2MjI1IDEwLjA4NTlDOS4wNDU3NSAxMC4wNDE1IDkuMDM2NzQgOS45OTM0MSA5LjAzNjc0IDkuOTQzMjVWOS44MzczOUw4LjQ0MzQgOS44Mzc0QzguMzQ4MyAxMC4xMjUxIDguMDc3MjQgMTAuMzMyNiA3Ljc1NzcgMTAuMzMyNkg3LjQyMDUyQzcuMDIxNzUgMTAuMzMyNiA2LjY5ODQ5IDEwLjAwOTQgNi42OTg0OSA5LjYxMDZMNi42OTg0OSA5LjI3MTZDNi42OTg0OSA4Ljg3MjgzIDcuMDIxNzUgOC41NDk1NiA3LjQyMDUyIDguNTQ5NTZINy43NTc3QzguMTM2NTQgOC41NDk1NiA4LjQ0NzIzIDguODQxMzIgOC40NzczNCA5LjIxMjRMOS4wODkyNiA5LjIxMjM5QzkuMTM4MTUgOS4xMjU2NyA5LjIxNzcyIDkuMDU4NTUgOS4zMTMyNCA5LjAyNTc1TDkuMTgyNiA4LjUwNzY4SDguOTg2NTJDOC41ODc3NSA4LjUwNzY4IDguMjY0NDggOC4xODQ0MiA4LjI2NDQ4IDcuNzg1NjVWNy40NDY2NUM4LjI2NDQ4IDcuMDQ3ODggOC41ODc3NSA2LjcyNDYxIDguOTg2NTIgNi43MjQ2MUg5LjMyMzdaTTkuNDIwNzMgNy40NDY2NUM5LjQyMDczIDcuMzkzMDYgOS4zNzcyOSA3LjM0OTYxIDkuMzIzNyA3LjM0OTYxTDguOTg2NTIgNy4zNDk2MUM4LjkzMjkzIDcuMzQ5NjEgOC44ODk0OCA3LjM5MzA1IDguODg5NDggNy40NDY2NVY3Ljc4NTY1QzguODg5NDggNy44MzkyNCA4LjkzMjkzIDcuODgyNjggOC45ODY1MiA3Ljg4MjY4SDkuMzIzN0M5LjM3NzI5IDcuODgyNjggOS40MjA3MyA3LjgzOTI0IDkuNDIwNzMgNy43ODU2NVY3LjQ0NjY1Wk0xMS45MTEzIDguNTIwODdDMTEuOTExMyA4LjQ2NzI3IDExLjg2NzggOC40MjM4MyAxMS44MTQyIDguNDIzODNIMTEuNDc3MUMxMS40MjM1IDguNDIzODMgMTEuMzggOC40NjcyNyAxMS4zOCA4LjUyMDg3VjguODU5ODZDMTEuMzggOC45MTM0NiAxMS40MjM1IDguOTU2OSAxMS40NzcxIDguOTU2OUgxMS44MTQyQzExLjg2NzggOC45NTY5IDExLjkxMTMgOC45MTM0NiAxMS45MTEzIDguODU5ODZWOC41MjA4N1pNMTEuODE2OCAxMC41NTU4QzExLjgxNjggMTAuNTAyMiAxMS43NzM0IDEwLjQ1ODcgMTEuNzE5OCAxMC40NTg3SDExLjI2ODhDMTEuMjE1MiAxMC40NTg3IDExLjE3MTcgMTAuNTAyMiAxMS4xNzE3IDEwLjU1NThWMTEuMDA4OEMxMS4xNzE3IDExLjA2MjQgMTEuMjE1MiAxMS4xMDU5IDExLjI2ODggMTEuMTA1OUgxMS43MTk4QzExLjc3MzQgMTEuMTA1OSAxMS44MTY4IDExLjA2MjQgMTEuODE2OCAxMS4wMDg4VjEwLjU1NThaTTcuNzU3NyA5LjE3NDU2QzcuODExMjkgOS4xNzQ1NiA3Ljg1NDc0IDkuMjE4MDEgNy44NTQ3NCA5LjI3MTZWOS42MTA2QzcuODU0NzQgOS42NjQxOSA3LjgxMTI5IDkuNzA3NjQgNy43NTc3IDkuNzA3NjRINy40MjA1MkM3LjM2NjkzIDkuNzA3NjQgNy4zMjM0OSA5LjY2NDE5IDcuMzIzNDkgOS42MTA2VjkuMjcxNkM3LjMyMzQ5IDkuMjE4MDEgNy4zNjY5MyA5LjE3NDU2IDcuNDIwNTIgOS4xNzQ1Nkg3Ljc1NzdaTTguNDI0NSAxMS41NzUxQzguNDI0NSAxMS41MjE1IDguMzgxMDUgMTEuNDc4IDguMzI3NDYgMTEuNDc4SDcuOTkwMjlDNy45MzY2OSAxMS40NzggNy44OTMyNSAxMS41MjE1IDcuODkzMjUgMTEuNTc1MVYxMS45MTQxQzcuODkzMjUgMTEuOTY3NyA3LjkzNjcgMTIuMDExMSA3Ljk5MDI5IDEyLjAxMTFIOC4zMjc0NkM4LjM4MTA1IDEyLjAxMTEgOC40MjQ1IDExLjk2NzcgOC40MjQ1IDExLjkxNDFWMTEuNTc1MVoiIGNsaXAtcnVsZT0iZXZlbm9kZCIgZmlsbC1ydWxlPSJldmVub2RkIi8+JiN4YTs8L2c+JiN4YTs8ZGVmcz4mI3hhOzxsaW5lYXJHcmFkaWVudCBncmFkaWVudFVuaXRzPSJ1c2VyU3BhY2VPblVzZSIgeTI9IjE0Ljc0NTYiIHgyPSIxMy42ODU2IiB5MT0iMi4yNjg3IiB4MT0iMS40NDg3MyIgaWQ9InBhaW50MF9saW5lYXJfMzUxNF80MDI3MSI+JiN4YTs8c3RvcCBzdG9wLWNvbG9yPSJ3aGl0ZSIvPiYjeGE7PHN0b3Agc3RvcC1jb2xvcj0iI0VBRUNFRSIgb2Zmc2V0PSIxIi8+JiN4YTs8L2xpbmVhckdyYWRpZW50PiYjeGE7PGxpbmVhckdyYWRpZW50IGdyYWRpZW50VW5pdHM9InVzZXJTcGFjZU9uVXNlIiB5Mj0iOS40NDA1IiB4Mj0iOC4zMjg4NCIgeTE9IjQuMjQzMTYiIHgxPSI0LjU2OTA4IiBpZD0icGFpbnQxX2xpbmVhcl8zNTE0XzQwMjcxIj4mI3hhOzxzdG9wIHN0b3AtY29sb3I9IiMwMTk1RkYiLz4mI3hhOzxzdG9wIHN0b3AtY29sb3I9IiMxMTQ3RTkiIG9mZnNldD0iMC45OTEwMjgiLz4mI3hhOzwvbGluZWFyR3JhZGllbnQ+JiN4YTs8cmFkaWFsR3JhZGllbnQgZ3JhZGllbnRUcmFuc2Zvcm09InRyYW5zbGF0ZSg3LjYwMjQ2IDcuNjEzOSkgcm90YXRlKDQ1LjM1OTQpIHNjYWxlKDUuNzg3MjQgNS4yNzMyOCkiIGdyYWRpZW50VW5pdHM9InVzZXJTcGFjZU9uVXNlIiByPSIxIiBjeT0iMCIgY3g9IjAiIGlkPSJwYWludDJfcmFkaWFsXzM1MTRfNDAyNzEiPiYjeGE7PHN0b3Agc3RvcC1jb2xvcj0iIzEzNDhGRiIvPiYjeGE7PHN0b3Agc3RvcC1jb2xvcj0iIzA2MjM4RCIgb2Zmc2V0PSIxIi8+JiN4YTs8L3JhZGlhbEdyYWRpZW50PiYjeGE7PGNsaXBQYXRoIGlkPSJjbGlwMF8zNTE0XzQwMjcxIj4mI3hhOzxyZWN0IHRyYW5zZm9ybT0idHJhbnNsYXRlKDMuMzk3NzEgMy4zOTc3MSkiIGZpbGw9IndoaXRlIiBoZWlnaHQ9IjEwIiB3aWR0aD0iMTAiLz4mI3hhOzwvY2xpcFBhdGg+JiN4YTs8L2RlZnM+JiN4YTs8L3N2Zz4=;points=[[0,0,0,0,0],[0,0.25,0,0,0],[0,0.5,0,0,0],[0,0.75,0,0,0],[0.25,0,0,0,0],[0.5,0,0,0,0],[0.75,0,0,0,0],[1,0,0,0,0],[1,0.25,0,0,0],[1,0.5,0,0,0],[1,0.75,0,0,0]];container=0;fontStyle=0;fontSize=12;fontColor=#1D2D3E;" vertex="1" parent="1">
          <mxGeometry x="11.120000000000005" y="421" width="52.18" height="52.18" as="geometry" />
        </mxCell>
        <mxCell id="vDJPk2kyMGkQtoP7QIK8-26" value="" style="edgeStyle=orthogonalEdgeStyle;rounded=0;orthogonalLoop=1;jettySize=auto;html=1;fillColor=#fff2cc;strokeColor=#d6b656;strokeWidth=2;endArrow=blockThin;endFill=1;" edge="1" parent="1" source="vDJPk2kyMGkQtoP7QIK8-27" target="vDJPk2kyMGkQtoP7QIK8-25">
          <mxGeometry relative="1" as="geometry" />
        </mxCell>
        <mxCell id="vDJPk2kyMGkQtoP7QIK8-27" value="Event Mesh" style="shape=image;verticalLabelPosition=bottom;verticalAlign=top;aspect=fixed;imageAspect=0;image=data:image/svg+xml,PHN2ZyB4bWxucz0iaHR0cDovL3d3dy53My5vcmcvMjAwMC9zdmciIGZpbGw9Im5vbmUiIHZpZXdCb3g9IjAgMCAxNiAxNiIgaGVpZ2h0PSIxNiIgd2lkdGg9IjE2Ij4mI3hhOzxjaXJjbGUgc3Ryb2tlLXdpZHRoPSIwLjI4NTcwOCIgc3Ryb2tlPSIjRDVEQUREIiBmaWxsPSJ1cmwoI3BhaW50MF9saW5lYXJfMzUxNF80MDIyNSkiIHI9IjcuODU2OTYiIGN5PSI3Ljk5ODg0IiBjeD0iNy45OTY4OSIvPiYjeGE7PGcgY2xpcC1wYXRoPSJ1cmwoI2NsaXAwXzM1MTRfNDAyMjUpIj4mI3hhOzxwYXRoIGZpbGw9InVybCgjcGFpbnQxX2xpbmVhcl8zNTE0XzQwMjI1KSIgZD0iTTcuNTE3NTEgMy44NTg0QzYuMTkxNjMgMy44NTg0IDUuMjQ5NTkgNC45MzkwNSA1LjA5MjY0IDYuMDY3MjdDNC42NjYxNCA2LjA5MjY4IDQuMjg5NTQgNi4yNTMxNyAzLjk5NzA0IDYuNTIyNzRDMy42MDEzNSA2Ljg4NzQyIDMuMzk2OTcgNy40MTY3NSAzLjM5Njk3IDcuOTc0OTZDMy4zOTY5NyA4LjQ5MzczIDMuNTU0MTQgOC45ODQwOCAzLjkwNjk4IDkuMzQ2NjJDNC4yNjIyIDkuNzExNiA0Ljc2NjUxIDkuODk2NDkgNS4zNjAzMiA5Ljg5NjQ5SDYuNDkwMDNWOS4yMTcyNUM2LjQ5MDAzIDguNTYwOTIgNy4wMTg5NyA4LjAxOTY1IDcuNjgyNzYgOC4wMTk2NUM4LjIwMDk3IDguMDE5NjUgOC42NTYwMiA4LjM1NDcgOC44MTU5MyA4Ljg0MzUyTDguODQxMTMgOC45MjA1OEw4Ljg2NDQxIDguODQ3ODdDOS4wMjE0NyA4LjM1NzE0IDkuNDc2NjggOC4wMTk2NSA5Ljk5NTkxIDguMDE5NjVDMTAuNjMyOSA4LjAxOTY1IDExLjE0NTMgOC41MTk4NyAxMS4xODIzIDkuMTQwOTVDMTEuNTE5NSA4Ljc1NjE2IDExLjczMDMgOC4yMzc5NiAxMS43MzAzIDcuNjE2MjVDMTEuNzMwMyA2LjM4MTIgMTAuODQ4OCA1LjQzMjA4IDkuNzg3NDYgNS4zMzE3QzkuMzYyMDMgNC40NTA4NSA4LjU3MjMxIDMuODU4NCA3LjUxNzUxIDMuODU4NFoiLz4mI3hhOzxwYXRoIGZpbGw9InVybCgjcGFpbnQyX2xpbmVhcl8zNTE0XzQwMjI1KSIgZD0iTTExLjgyNzcgMTIuNDY1OEMxMS42ODEyIDEyLjYxNDggMTEuNTM2NCAxMi44NDU4IDExLjY4MyAxMi45OTQ4QzExLjgyOTUgMTMuMTQzOCAxMS45OTU3IDEzLjE1NDMgMTIuMTQyMiAxMy4wMDUyTDEzLjI2NyAxMS44NjEyQzEzLjQxMzUgMTEuNzEyMiAxMy40MTM1IDExLjQ3MDggMTMuMjY3IDExLjMyMThMMTIuMTQyMiAxMC4xNzc3QzExLjk5NTcgMTAuMDI4NyAxMS44MjM1IDkuOTY2NjQgMTEuNjc3IDEwLjExNTdDMTEuNDkzOCAxMC4yNTg3IDExLjc0ODkgMTAuNTY4MSAxMS44OTU0IDEwLjcxNzFMMTIuMzE1MyAxMS4yMTg0TDEwLjAwMjkgMTEuMjIwOEwxMC4wMDI4IDExLjUxNzVDMTAuMDAyNiAxMS43MjIyIDEwLjE2NzIgMTEuODg4IDEwLjM3MDEgMTEuODg3OEwxMi4zNTY3IDExLjg4NTdMMTEuODI3NyAxMi40NjU4WiIvPiYjeGE7PHBhdGggZmlsbD0idXJsKCNwYWludDNfbGluZWFyXzM1MTRfNDAyMjUpIiBkPSJNNy4xNTc0NyA5LjI0ODg3QzcuMTU3NDcgOC45MzE1NSA3LjQxMjUxIDguNjc0MzIgNy43MjcxMSA4LjY3NDMyQzcuOTcyOTUgOC42NzQzMiA4LjE5MTA1IDguODMzMzggOC4yNjgwNyA5LjA2ODg0TDguNzM1MjcgMTAuNDk3QzguNzYxMjcgMTAuNTc1NyA4Ljc5MTg0IDEwLjY4NTkgOC44MjcwMSAxMC44Mjc4QzguODYyMTcgMTAuOTY5NyA4Ljg4NTExIDExLjA2MzcgOC44OTU4MSAxMS4xMUM4LjkwODA0IDExLjA2MzcgOC45MzI1IDEwLjk3MTIgOC45NjkxOSAxMC44MzI0QzkuMDA3NDIgMTAuNjkyMSA5LjAzOTUyIDEwLjU4NDEgOS4wNjU1MSAxMC41MDg2TDkuNTI2MTYgOS4wNjkzN0M5LjYwMTUzIDguODMzOSA5LjgxODg2IDguNjc0MzIgMTAuMDY0MiA4LjY3NDMyQzEwLjM3NjQgOC42NzQzMiAxMC42Mjk2IDguOTI5NjIgMTAuNjI5NiA5LjI0NDU2VjExLjIyMDJMMTAuMDAyOSAxMS4yMjA4TDEwLjAwMzUgOS45NTgwOEMxMC4wMDM1IDkuNzkxNTMgMTAuMDA3MyA5LjYzNDI0IDEwLjAxNDkgOS40ODYyMUMxMC4wMjQxIDkuMzM4MTcgMTAuMDIwNCA5LjI3OTMxIDEwLjAyODcgOS4yNTI1OUMxMC4wMjcyIDkuMjU0MTMgMTAuMDExOSA5LjMwODEgOS45ODI4NCA5LjQxNDVDOS45Njc1NSA5LjQ2NTM5IDkuOTM1NDUgOS41NzQ4OCA5Ljg4NjUyIDkuNzQyOTZDOS44MzkxMyA5LjkxMTA0IDkuODAxNjcgMTAuMDM1MiA5Ljc3NDE1IDEwLjExNTRMOS4yNTYzNCAxMS42NzAzQzkuMjAzOTggMTEuODI3NSA5LjA1NzkzIDExLjkzMzQgOC44OTM1MSAxMS45MzM0QzguNzI5MDkgMTEuOTMzNCA4LjU4MzA0IDExLjgyNzUgOC41MzA2OSAxMS42NzAzTDguMDEyODggMTAuMTE1NEM3Ljk4MDc3IDEwLjAyMTMgNy45MzQ5MSA5Ljg3NDAzIDcuODc1MjggOS42NzM1N0M3LjgxNzE4IDkuNDcxNTYgNy43NzY2NyA5LjMzMTIzIDcuNzUzNzMgOS4yNTI1OUw3Ljc1ODMyIDkuMzE5NjdDNy43NTk4NSA5LjM0NDM0IDcuNzY0NDQgOS40MzE0NiA3Ljc3MjA4IDkuNTgxMDRDNy43Nzk3MiA5LjcyOTA4IDcuNzgzNTUgOS44NTQ3NiA3Ljc4MzU1IDkuOTU4MDhWMTEuNjE3N0M3Ljc4MzU1IDExLjc5MjEgNy42NDM0IDExLjkzMzQgNy40NzA1MSAxMS45MzM0QzcuMjk3NjIgMTEuOTMzNCA3LjE1NzQ3IDExLjc5MjEgNy4xNTc0NyAxMS42MTc3VjkuMjQ4ODdaIi8+JiN4YTs8L2c+JiN4YTs8ZGVmcz4mI3hhOzxsaW5lYXJHcmFkaWVudCBncmFkaWVudFVuaXRzPSJ1c2VyU3BhY2VPblVzZSIgeTI9IjE0Ljc0NjgiIHgyPSIxMy42ODQ5IiB5MT0iMi4yNjk5MiIgeDE9IjEuNDQ3OTkiIGlkPSJwYWludDBfbGluZWFyXzM1MTRfNDAyMjUiPiYjeGE7PHN0b3Agc3RvcC1jb2xvcj0id2hpdGUiLz4mI3hhOzxzdG9wIHN0b3AtY29sb3I9IiNFQUVDRUUiIG9mZnNldD0iMSIvPiYjeGE7PC9saW5lYXJHcmFkaWVudD4mI3hhOzxsaW5lYXJHcmFkaWVudCBncmFkaWVudFVuaXRzPSJ1c2VyU3BhY2VPblVzZSIgeTI9IjEwLjMwNzQiIHgyPSI4LjY2MzI3IiB5MT0iNC43NjEzNiIgeDE9IjQuNjQ2MTgiIGlkPSJwYWludDFfbGluZWFyXzM1MTRfNDAyMjUiPiYjeGE7PHN0b3Agc3RvcC1jb2xvcj0iIzAxOTVGRiIvPiYjeGE7PHN0b3Agc3RvcC1jb2xvcj0iIzExNDdFOSIgb2Zmc2V0PSIwLjk5MTAyOCIvPiYjeGE7PC9saW5lYXJHcmFkaWVudD4mI3hhOzxsaW5lYXJHcmFkaWVudCBncmFkaWVudFVuaXRzPSJ1c2VyU3BhY2VPblVzZSIgeTI9IjEzLjQ1NSIgeDI9IjExLjAwOTYiIHkxPSI5LjMyNzE5IiB4MT0iOC4wNzY5NyIgaWQ9InBhaW50Ml9saW5lYXJfMzUxNF80MDIyNSI+JiN4YTs8c3RvcCBzdG9wLWNvbG9yPSIjMTM0OEZGIi8+JiN4YTs8c3RvcCBzdG9wLWNvbG9yPSIjMDYyMzhEIiBvZmZzZXQ9IjEiLz4mI3hhOzwvbGluZWFyR3JhZGllbnQ+JiN4YTs8bGluZWFyR3JhZGllbnQgZ3JhZGllbnRVbml0cz0idXNlclNwYWNlT25Vc2UiIHkyPSIxMy40NTUiIHgyPSIxMS4wMDk2IiB5MT0iOS4zMjcxOSIgeDE9IjguMDc2OTciIGlkPSJwYWludDNfbGluZWFyXzM1MTRfNDAyMjUiPiYjeGE7PHN0b3Agc3RvcC1jb2xvcj0iIzEzNDhGRiIvPiYjeGE7PHN0b3Agc3RvcC1jb2xvcj0iIzA2MjM4RCIgb2Zmc2V0PSIxIi8+JiN4YTs8L2xpbmVhckdyYWRpZW50PiYjeGE7PGNsaXBQYXRoIGlkPSJjbGlwMF8zNTE0XzQwMjI1Ij4mI3hhOzxyZWN0IHRyYW5zZm9ybT0idHJhbnNsYXRlKDMuMzk2OTcgMy43OTkwNykiIGZpbGw9IndoaXRlIiBoZWlnaHQ9IjEwLjAwMDIiIHdpZHRoPSIxMCIvPiYjeGE7PC9jbGlwUGF0aD4mI3hhOzwvZGVmcz4mI3hhOzwvc3ZnPg==;points=[[0,0,0,0,0],[0,0.25,0,0,0],[0,0.5,0,0,0],[0,0.75,0,0,0],[0.25,0,0,0,0],[0.5,0,0,0,0],[0.75,0,0,0,0],[1,0,0,0,0],[1,0.25,0,0,0],[1,0.5,0,0,0],[1,0.75,0,0,0]];container=0;fontStyle=0;fontSize=12;fontColor=#1D2D3E;" vertex="1" parent="1">
          <mxGeometry x="12.120000000000005" y="339" width="50" height="50" as="geometry" />
        </mxCell>
        <mxCell id="vDJPk2kyMGkQtoP7QIK8-28" value="REFLEX QAL" style="shape=image;verticalLabelPosition=bottom;verticalAlign=top;imageAspect=0;aspect=fixed;image=data:image/svg+xml,PHN2ZyB4bWxucz0iaHR0cDovL3d3dy53My5vcmcvMjAwMC9zdmciIGZpbGw9Im5vbmUiIHZpZXdCb3g9IjAgMCAyOCAyOCIgaGVpZ2h0PSIyOCIgd2lkdGg9IjI4Ij4mI3hhOzxnIGNsaXAtcGF0aD0idXJsKCNjbGlwMF84NzBfMjg0KSI+JiN4YTs8cGF0aCBmaWxsPSJ1cmwoI3BhaW50MF9saW5lYXJfODcwXzI4NCkiIGQ9Ik0yMy43ODkyIDEuNzIzM0MyNC45OTE0IDEuNzIzMyAyNS45OTQxIDIuMTI1NzkgMjYuNzk3MyAyLjkyNzI2QzI3LjU5ODggMy43Mjg3MyAyNy45OTk1IDQuNzI5NyAyNy45OTk1IDUuOTMzNjVWMjIuMDY2M0MyOC4wMDggMjIuNjIyNSAyNy45MDYgMjMuMTc0OCAyNy42OTkzIDIzLjY5MTJDMjcuNDkyNiAyNC4yMDc2IDI3LjE4NTQgMjQuNjc3OCAyNi43OTU2IDI1LjA3NDVDMjUuOTk0MSAyNS44NzU5IDI0Ljk5MzEgMjYuMjc2NyAyMy43ODkyIDI2LjI3NjdINC4yMTA4N0MzLjAwODY2IDI2LjI3NjcgMi4wMDU5NSAyNS44NzU5IDEuMjAyNzMgMjUuMDc0NUMwLjgxMzE2NCAyNC42Nzc2IDAuNTA2MjkyIDI0LjIwNzQgMC4yOTk5MTggMjMuNjkxQzAuMDkzNTQzNCAyMy4xNzQ2IC0wLjAwODIyNDU4IDIyLjYyMjQgMC4wMDA1MTkyMzEgMjIuMDY2M1Y1LjkzMzY1QzAuMDAwNTE5MjMxIDQuNzMxNDUgMC40MDMwMDUgMy43Mjg3MyAxLjIwNDQ4IDIuOTI1NTFDMi4wMDQyIDIuMTI1NzkgMy4wMDY5MSAxLjcyMzMgNC4yMDkxMiAxLjcyMzNIMjMuNzg5MlpNMi43ODk5MiA3LjMwMjFIMjUuMjEwMVY1LjkzMzY1QzI1LjIxMDEgNC45ODY5NCAyNC43Mzc2IDQuNTEyNyAyMy43ODkyIDQuNTEyN0g0LjIxMDg3QzMuODI4NiA0LjUwNTcyIDMuNDU3NjUgNC42NDI0OSAzLjE3MTQgNC44OTU5NEMyLjkxNzY2IDUuMTQ5NjggMi43ODk5MiA1LjQ5NjE3IDIuNzg5OTIgNS45MzM2NVY3LjMwMDM1VjcuMzAyMVpNMjUuMjEwMSAxMC4xNDU4SDIuNzg5OTJWMjIuMDY2M0MyLjc4OTkyIDIyLjQ2ODggMi45MTc2NiAyMi43OTYgMy4xNzE0IDIzLjA1MTVDMy40NTc5MSAyMy4zMDQ0IDMuODI4ODQgMjMuNDQwNSA0LjIxMDg3IDIzLjQzM0gyMy43ODkyQzI0LjczNTkgMjMuNDMzIDI1LjIxMDEgMjIuOTc4IDI1LjIxMDEgMjIuMDY2M1YxMC4xNDRWMTAuMTQ1OFoiLz4mI3hhOzwvZz4mI3hhOzxkZWZzPiYjeGE7PGxpbmVhckdyYWRpZW50IGdyYWRpZW50VW5pdHM9InVzZXJTcGFjZU9uVXNlIiB5Mj0iMjYuMjc2NyIgeDI9IjE0IiB5MT0iMS43MjMzIiB4MT0iMTQiIGlkPSJwYWludDBfbGluZWFyXzg3MF8yODQiPiYjeGE7PHN0b3Agc3RvcC1jb2xvcj0iIzVCNzM4QiIvPiYjeGE7PHN0b3Agc3RvcC1jb2xvcj0iIzIyMzU0OCIgb2Zmc2V0PSIxIi8+JiN4YTs8L2xpbmVhckdyYWRpZW50PiYjeGE7PGNsaXBQYXRoIGlkPSJjbGlwMF84NzBfMjg0Ij4mI3hhOzxyZWN0IGZpbGw9IndoaXRlIiBoZWlnaHQ9IjI4IiB3aWR0aD0iMjgiLz4mI3hhOzwvY2xpcFBhdGg+JiN4YTs8L2RlZnM+JiN4YTs8L3N2Zz4=" vertex="1" parent="1">
          <mxGeometry x="-384.5" y="412" width="70" height="70" as="geometry" />
        </mxCell>
        <mxCell id="vDJPk2kyMGkQtoP7QIK8-29" style="edgeStyle=orthogonalEdgeStyle;rounded=0;orthogonalLoop=1;jettySize=auto;html=1;exitX=1;exitY=0.5;exitDx=0;exitDy=0;entryX=0;entryY=0.5;entryDx=0;entryDy=0;entryPerimeter=0;strokeWidth=2;endArrow=blockThin;endFill=1;strokeColor=#82b366;startArrow=blockThin;startFill=1;fillColor=#d5e8d4;" edge="1" parent="1" source="vDJPk2kyMGkQtoP7QIK8-28" target="vDJPk2kyMGkQtoP7QIK8-25">
          <mxGeometry relative="1" as="geometry">
            <mxPoint x="42.61999999999989" y="415.58941176470626" as="targetPoint" />
          </mxGeometry>
        </mxCell>
        <mxCell id="vDJPk2kyMGkQtoP7QIK8-30" value="&lt;font color=&quot;#475f75&quot; size=&quot;1&quot;&gt;&lt;b style=&quot;&quot;&gt;SFTP&lt;/b&gt;&lt;/font&gt;" style="rounded=1;whiteSpace=wrap;html=1;arcSize=50;strokeColor=#475f75;fillColor=default;strokeWidth=1.5;" vertex="1" parent="1">
          <mxGeometry x="-152.5" y="441" width="57" height="16" as="geometry" />
        </mxCell>
        <mxCell id="vDJPk2kyMGkQtoP7QIK8-31" value="Inboud / Outbound Delivery&lt;div&gt;Materials&lt;/div&gt;&lt;div&gt;Supplier&lt;/div&gt;&lt;div&gt;Recipient&lt;/div&gt;" style="text;html=1;align=center;verticalAlign=middle;whiteSpace=wrap;rounded=0;" vertex="1" parent="1">
          <mxGeometry x="-305.5" y="392" width="155" height="49" as="geometry" />
        </mxCell>
        <mxCell id="vDJPk2kyMGkQtoP7QIK8-32" value="&lt;font face=&quot;arial&quot; style=&quot;color: rgb(29, 45, 62); text-wrap-mode: nowrap; font-size: 16px;&quot;&gt;&lt;b&gt;SubAccount PRD&lt;/b&gt;&lt;/font&gt;" style="rounded=1;whiteSpace=wrap;html=1;strokeColor=#0070F2;strokeWidth=1.5;arcSize=24;fillColor=#FFFFFF;perimeterSpacing=0;absoluteArcSize=1;verticalAlign=top;align=left;spacingTop=0;spacingLeft=7;" vertex="1" parent="1">
          <mxGeometry x="-56.18999999999998" y="530" width="201.64" height="203.17" as="geometry" />
        </mxCell>
        <mxCell id="vDJPk2kyMGkQtoP7QIK8-33" value="Cloud &#xa;Integration" style="shape=image;verticalLabelPosition=bottom;verticalAlign=top;aspect=fixed;imageAspect=0;image=data:image/svg+xml,PHN2ZyB4bWxucz0iaHR0cDovL3d3dy53My5vcmcvMjAwMC9zdmciIGZpbGw9Im5vbmUiIHZpZXdCb3g9IjAgMCAxNiAxNiIgaGVpZ2h0PSIxNiIgd2lkdGg9IjE2Ij4mI3hhOzxjaXJjbGUgc3Ryb2tlLXdpZHRoPSIwLjI4NTcwOCIgc3Ryb2tlPSIjRDVEQUREIiBmaWxsPSJ1cmwoI3BhaW50MF9saW5lYXJfMzUxNF80MDI3MSkiIHI9IjcuODU2OTYiIGN5PSI3Ljk5NzYyIiBjeD0iNy45OTc2MiIvPiYjeGE7PGcgY2xpcC1wYXRoPSJ1cmwoI2NsaXAwXzM1MTRfNDAyNzEpIj4mI3hhOzxwYXRoIGZpbGw9InVybCgjcGFpbnQxX2xpbmVhcl8zNTE0XzQwMjcxKSIgZD0iTTcuMjYwOTUgMy4zOTc3MUM2LjAxNzkzIDMuMzk3NzEgNS4xMzQ3NyA0LjQwOTUzIDQuOTg3NjMgNS40NjU4OUM0LjU4Nzc5IDUuNDg5NjkgNC4yMzQ3MyA1LjYzOTk2IDMuOTYwNTEgNS44OTIzNkMzLjU4OTU1IDYuMjMzODEgMy4zOTc5NSA2LjcyOTQzIDMuMzk3OTUgNy4yNTIwOUMzLjM5Nzk1IDcuNzM3ODIgMy41NDUyOSA4LjE5Njk0IDMuODc2MDggOC41MzYzOUM0LjIwOTEgOC44NzgxMyA0LjY4MTg5IDkuMDUxMjQgNS4yMzg1OCA5LjA1MTI0SDYuMjE4NDFDNi4zMjIwOCA4LjQ4MTQyIDYuODIwOTIgOC4wNDkzOCA3LjQyMDY2IDguMDQ5MzhINy43NTc4NEM3Ljc2OTc0IDguMDQ5MzggNy43ODE2IDguMDQ5NTUgNy43OTM0MSA4LjA0OTg4QzcuNzc0NjQgNy45NjQ3NSA3Ljc2NDc0IDcuODc2MjkgNy43NjQ3NCA3Ljc4NTUxVjcuNDQ2NTFDNy43NjQ3NCA2Ljc3MTYgOC4zMTE4NyA2LjIyNDQ3IDguOTg2NzggNi4yMjQ0N0g5LjMyMzk1QzkuOTk4ODYgNi4yMjQ0NyAxMC41NDYgNi43NzE2IDEwLjU0NiA3LjQ0NjUxVjcuNzI5NDJDMTAuNzA3MyA3LjUzOTc2IDEwLjkyNTUgNy40IDExLjE3NDIgNy4zMzY1M0MxMS4xOTggNy4yMDI4NSAxMS4yMTA0IDcuMDYyNiAxMS4yMTA0IDYuOTE2MjJDMTEuMjEwNCA1Ljc1OTgzIDEwLjM4NCA0Ljg3MTE2IDkuMzg5MDEgNC43NzcxN0M4Ljk5MDE3IDMuOTUyNDIgOC4yNDk4MiAzLjM5NzcxIDcuMjYwOTUgMy4zOTc3MVoiLz4mI3hhOzxwYXRoIGZpbGw9InVybCgjcGFpbnQyX3JhZGlhbF8zNTE0XzQwMjcxKSIgZD0iTTkuMzIzNyA2LjcyNDYxQzkuNzIyNDcgNi43MjQ2MSAxMC4wNDU3IDcuMDQ3ODggMTAuMDQ1NyA3LjQ0NjY1VjcuNzg1NjVDMTAuMDQ1NyA4LjAwODk1IDkuOTQ0MzcgOC4yMDg1NyA5Ljc4NTE0IDguMzQxMDJMOS45NTIyMyA5LjAwMzY2SDkuOTc2MzNDMTAuMDQ2MSA5LjAwMzY2IDEwLjExMTggOS4wMjExIDEwLjE2OTMgOS4wNTE4N0wxMC43NTUgOC43NTQ2OFY4LjUyMDg3QzEwLjc1NSA4LjEyMjEgMTEuMDc4MyA3Ljc5ODgzIDExLjQ3NzEgNy43OTg4M0gxMS44MTQyQzEyLjIxMyA3Ljc5ODgzIDEyLjUzNjMgOC4xMjIxIDEyLjUzNjMgOC41MjA4N1Y4Ljg1OTg3QzEyLjUzNjMgOS4yNTg2NCAxMi4yMTMgOS41ODE5IDExLjgxNDIgOS41ODE5SDExLjQ3NzFDMTEuMjcwMiA5LjU4MTkgMTEuMDgzNyA5LjQ5NDkzIDEwLjk1MjEgOS4zNTU1NUwxMC4zODU5IDkuNjQyODFWOS43MTQ0TDEwLjM4NzggOS43MTE1MUwxMC44MTY4IDkuOTkyNjNDMTAuOTQwNSA5Ljg5MzIyIDExLjA5NzcgOS44MzM3NCAxMS4yNjg4IDkuODMzNzRIMTEuNzE5OEMxMi4xMTg2IDkuODMzNzQgMTIuNDQxOCAxMC4xNTcgMTIuNDQxOCAxMC41NTU4VjExLjAwODhDMTIuNDQxOCAxMS40MDc2IDEyLjExODYgMTEuNzMwOSAxMS43MTk4IDExLjczMDlIMTEuMjY4OEMxMC44NyAxMS43MzA5IDEwLjU0NjcgMTEuNDA3NiAxMC41NDY3IDExLjAwODhWMTAuNTYyOUwxMC4xNTk5IDEwLjMwOTRDMTAuMTA0NyAxMC4zMzcyIDEwLjA0MjMgMTAuMzUyOCA5Ljk3NjMzIDEwLjM1MjhIOS42NDI3NEw4Ljk3MzI1IDExLjI1MThDOS4wMjIwNCAxMS4zNDkgOS4wNDk1IDExLjQ1ODggOS4wNDk1IDExLjU3NTFWMTEuOTE0MUM5LjA0OTUgMTIuMzEyOCA4LjcyNjIzIDEyLjYzNjEgOC4zMjc0NiAxMi42MzYxSDcuOTkwMjlDNy41OTE1MiAxMi42MzYxIDcuMjY4MjUgMTIuMzEyOCA3LjI2ODI1IDExLjkxNDFMNy4yNjgyNSAxMS41NzUxQzcuMjY4MjUgMTEuMTc2MyA3LjU5MTUyIDEwLjg1MyA3Ljk5MDI5IDEwLjg1M0g4LjMyNzQ2QzguMzc5NDYgMTAuODUzIDguNDMwMTggMTAuODU4NSA4LjQ3OTA2IDEwLjg2OUw5LjA2MjI1IDEwLjA4NTlDOS4wNDU3NSAxMC4wNDE1IDkuMDM2NzQgOS45OTM0MSA5LjAzNjc0IDkuOTQzMjVWOS44MzczOUw4LjQ0MzQgOS44Mzc0QzguMzQ4MyAxMC4xMjUxIDguMDc3MjQgMTAuMzMyNiA3Ljc1NzcgMTAuMzMyNkg3LjQyMDUyQzcuMDIxNzUgMTAuMzMyNiA2LjY5ODQ5IDEwLjAwOTQgNi42OTg0OSA5LjYxMDZMNi42OTg0OSA5LjI3MTZDNi42OTg0OSA4Ljg3MjgzIDcuMDIxNzUgOC41NDk1NiA3LjQyMDUyIDguNTQ5NTZINy43NTc3QzguMTM2NTQgOC41NDk1NiA4LjQ0NzIzIDguODQxMzIgOC40NzczNCA5LjIxMjRMOS4wODkyNiA5LjIxMjM5QzkuMTM4MTUgOS4xMjU2NyA5LjIxNzcyIDkuMDU4NTUgOS4zMTMyNCA5LjAyNTc1TDkuMTgyNiA4LjUwNzY4SDguOTg2NTJDOC41ODc3NSA4LjUwNzY4IDguMjY0NDggOC4xODQ0MiA4LjI2NDQ4IDcuNzg1NjVWNy40NDY2NUM4LjI2NDQ4IDcuMDQ3ODggOC41ODc3NSA2LjcyNDYxIDguOTg2NTIgNi43MjQ2MUg5LjMyMzdaTTkuNDIwNzMgNy40NDY2NUM5LjQyMDczIDcuMzkzMDYgOS4zNzcyOSA3LjM0OTYxIDkuMzIzNyA3LjM0OTYxTDguOTg2NTIgNy4zNDk2MUM4LjkzMjkzIDcuMzQ5NjEgOC44ODk0OCA3LjM5MzA1IDguODg5NDggNy40NDY2NVY3Ljc4NTY1QzguODg5NDggNy44MzkyNCA4LjkzMjkzIDcuODgyNjggOC45ODY1MiA3Ljg4MjY4SDkuMzIzN0M5LjM3NzI5IDcuODgyNjggOS40MjA3MyA3LjgzOTI0IDkuNDIwNzMgNy43ODU2NVY3LjQ0NjY1Wk0xMS45MTEzIDguNTIwODdDMTEuOTExMyA4LjQ2NzI3IDExLjg2NzggOC40MjM4MyAxMS44MTQyIDguNDIzODNIMTEuNDc3MUMxMS40MjM1IDguNDIzODMgMTEuMzggOC40NjcyNyAxMS4zOCA4LjUyMDg3VjguODU5ODZDMTEuMzggOC45MTM0NiAxMS40MjM1IDguOTU2OSAxMS40NzcxIDguOTU2OUgxMS44MTQyQzExLjg2NzggOC45NTY5IDExLjkxMTMgOC45MTM0NiAxMS45MTEzIDguODU5ODZWOC41MjA4N1pNMTEuODE2OCAxMC41NTU4QzExLjgxNjggMTAuNTAyMiAxMS43NzM0IDEwLjQ1ODcgMTEuNzE5OCAxMC40NTg3SDExLjI2ODhDMTEuMjE1MiAxMC40NTg3IDExLjE3MTcgMTAuNTAyMiAxMS4xNzE3IDEwLjU1NThWMTEuMDA4OEMxMS4xNzE3IDExLjA2MjQgMTEuMjE1MiAxMS4xMDU5IDExLjI2ODggMTEuMTA1OUgxMS43MTk4QzExLjc3MzQgMTEuMTA1OSAxMS44MTY4IDExLjA2MjQgMTEuODE2OCAxMS4wMDg4VjEwLjU1NThaTTcuNzU3NyA5LjE3NDU2QzcuODExMjkgOS4xNzQ1NiA3Ljg1NDc0IDkuMjE4MDEgNy44NTQ3NCA5LjI3MTZWOS42MTA2QzcuODU0NzQgOS42NjQxOSA3LjgxMTI5IDkuNzA3NjQgNy43NTc3IDkuNzA3NjRINy40MjA1MkM3LjM2NjkzIDkuNzA3NjQgNy4zMjM0OSA5LjY2NDE5IDcuMzIzNDkgOS42MTA2VjkuMjcxNkM3LjMyMzQ5IDkuMjE4MDEgNy4zNjY5MyA5LjE3NDU2IDcuNDIwNTIgOS4xNzQ1Nkg3Ljc1NzdaTTguNDI0NSAxMS41NzUxQzguNDI0NSAxMS41MjE1IDguMzgxMDUgMTEuNDc4IDguMzI3NDYgMTEuNDc4SDcuOTkwMjlDNy45MzY2OSAxMS40NzggNy44OTMyNSAxMS41MjE1IDcuODkzMjUgMTEuNTc1MVYxMS45MTQxQzcuODkzMjUgMTEuOTY3NyA3LjkzNjcgMTIuMDExMSA3Ljk5MDI5IDEyLjAxMTFIOC4zMjc0NkM4LjM4MTA1IDEyLjAxMTEgOC40MjQ1IDExLjk2NzcgOC40MjQ1IDExLjkxNDFWMTEuNTc1MVoiIGNsaXAtcnVsZT0iZXZlbm9kZCIgZmlsbC1ydWxlPSJldmVub2RkIi8+JiN4YTs8L2c+JiN4YTs8ZGVmcz4mI3hhOzxsaW5lYXJHcmFkaWVudCBncmFkaWVudFVuaXRzPSJ1c2VyU3BhY2VPblVzZSIgeTI9IjE0Ljc0NTYiIHgyPSIxMy42ODU2IiB5MT0iMi4yNjg3IiB4MT0iMS40NDg3MyIgaWQ9InBhaW50MF9saW5lYXJfMzUxNF80MDI3MSI+JiN4YTs8c3RvcCBzdG9wLWNvbG9yPSJ3aGl0ZSIvPiYjeGE7PHN0b3Agc3RvcC1jb2xvcj0iI0VBRUNFRSIgb2Zmc2V0PSIxIi8+JiN4YTs8L2xpbmVhckdyYWRpZW50PiYjeGE7PGxpbmVhckdyYWRpZW50IGdyYWRpZW50VW5pdHM9InVzZXJTcGFjZU9uVXNlIiB5Mj0iOS40NDA1IiB4Mj0iOC4zMjg4NCIgeTE9IjQuMjQzMTYiIHgxPSI0LjU2OTA4IiBpZD0icGFpbnQxX2xpbmVhcl8zNTE0XzQwMjcxIj4mI3hhOzxzdG9wIHN0b3AtY29sb3I9IiMwMTk1RkYiLz4mI3hhOzxzdG9wIHN0b3AtY29sb3I9IiMxMTQ3RTkiIG9mZnNldD0iMC45OTEwMjgiLz4mI3hhOzwvbGluZWFyR3JhZGllbnQ+JiN4YTs8cmFkaWFsR3JhZGllbnQgZ3JhZGllbnRUcmFuc2Zvcm09InRyYW5zbGF0ZSg3LjYwMjQ2IDcuNjEzOSkgcm90YXRlKDQ1LjM1OTQpIHNjYWxlKDUuNzg3MjQgNS4yNzMyOCkiIGdyYWRpZW50VW5pdHM9InVzZXJTcGFjZU9uVXNlIiByPSIxIiBjeT0iMCIgY3g9IjAiIGlkPSJwYWludDJfcmFkaWFsXzM1MTRfNDAyNzEiPiYjeGE7PHN0b3Agc3RvcC1jb2xvcj0iIzEzNDhGRiIvPiYjeGE7PHN0b3Agc3RvcC1jb2xvcj0iIzA2MjM4RCIgb2Zmc2V0PSIxIi8+JiN4YTs8L3JhZGlhbEdyYWRpZW50PiYjeGE7PGNsaXBQYXRoIGlkPSJjbGlwMF8zNTE0XzQwMjcxIj4mI3hhOzxyZWN0IHRyYW5zZm9ybT0idHJhbnNsYXRlKDMuMzk3NzEgMy4zOTc3MSkiIGZpbGw9IndoaXRlIiBoZWlnaHQ9IjEwIiB3aWR0aD0iMTAiLz4mI3hhOzwvY2xpcFBhdGg+JiN4YTs8L2RlZnM+JiN4YTs8L3N2Zz4=;points=[[0,0,0,0,0],[0,0.25,0,0,0],[0,0.5,0,0,0],[0,0.75,0,0,0],[0.25,0,0,0,0],[0.5,0,0,0,0],[0.75,0,0,0,0],[1,0,0,0,0],[1,0.25,0,0,0],[1,0.5,0,0,0],[1,0.75,0,0,0]];container=0;fontStyle=0;fontSize=12;fontColor=#1D2D3E;" vertex="1" parent="1">
          <mxGeometry x="15.620000000000005" y="641" width="52.18" height="52.18" as="geometry" />
        </mxCell>
        <mxCell id="vDJPk2kyMGkQtoP7QIK8-34" value="" style="edgeStyle=orthogonalEdgeStyle;rounded=0;orthogonalLoop=1;jettySize=auto;html=1;fillColor=#fff2cc;strokeColor=#d6b656;strokeWidth=2;endArrow=blockThin;endFill=1;" edge="1" parent="1" source="vDJPk2kyMGkQtoP7QIK8-35" target="vDJPk2kyMGkQtoP7QIK8-33">
          <mxGeometry relative="1" as="geometry" />
        </mxCell>
        <mxCell id="vDJPk2kyMGkQtoP7QIK8-35" value="Event Mesh" style="shape=image;verticalLabelPosition=bottom;verticalAlign=top;aspect=fixed;imageAspect=0;image=data:image/svg+xml,PHN2ZyB4bWxucz0iaHR0cDovL3d3dy53My5vcmcvMjAwMC9zdmciIGZpbGw9Im5vbmUiIHZpZXdCb3g9IjAgMCAxNiAxNiIgaGVpZ2h0PSIxNiIgd2lkdGg9IjE2Ij4mI3hhOzxjaXJjbGUgc3Ryb2tlLXdpZHRoPSIwLjI4NTcwOCIgc3Ryb2tlPSIjRDVEQUREIiBmaWxsPSJ1cmwoI3BhaW50MF9saW5lYXJfMzUxNF80MDIyNSkiIHI9IjcuODU2OTYiIGN5PSI3Ljk5ODg0IiBjeD0iNy45OTY4OSIvPiYjeGE7PGcgY2xpcC1wYXRoPSJ1cmwoI2NsaXAwXzM1MTRfNDAyMjUpIj4mI3hhOzxwYXRoIGZpbGw9InVybCgjcGFpbnQxX2xpbmVhcl8zNTE0XzQwMjI1KSIgZD0iTTcuNTE3NTEgMy44NTg0QzYuMTkxNjMgMy44NTg0IDUuMjQ5NTkgNC45MzkwNSA1LjA5MjY0IDYuMDY3MjdDNC42NjYxNCA2LjA5MjY4IDQuMjg5NTQgNi4yNTMxNyAzLjk5NzA0IDYuNTIyNzRDMy42MDEzNSA2Ljg4NzQyIDMuMzk2OTcgNy40MTY3NSAzLjM5Njk3IDcuOTc0OTZDMy4zOTY5NyA4LjQ5MzczIDMuNTU0MTQgOC45ODQwOCAzLjkwNjk4IDkuMzQ2NjJDNC4yNjIyIDkuNzExNiA0Ljc2NjUxIDkuODk2NDkgNS4zNjAzMiA5Ljg5NjQ5SDYuNDkwMDNWOS4yMTcyNUM2LjQ5MDAzIDguNTYwOTIgNy4wMTg5NyA4LjAxOTY1IDcuNjgyNzYgOC4wMTk2NUM4LjIwMDk3IDguMDE5NjUgOC42NTYwMiA4LjM1NDcgOC44MTU5MyA4Ljg0MzUyTDguODQxMTMgOC45MjA1OEw4Ljg2NDQxIDguODQ3ODdDOS4wMjE0NyA4LjM1NzE0IDkuNDc2NjggOC4wMTk2NSA5Ljk5NTkxIDguMDE5NjVDMTAuNjMyOSA4LjAxOTY1IDExLjE0NTMgOC41MTk4NyAxMS4xODIzIDkuMTQwOTVDMTEuNTE5NSA4Ljc1NjE2IDExLjczMDMgOC4yMzc5NiAxMS43MzAzIDcuNjE2MjVDMTEuNzMwMyA2LjM4MTIgMTAuODQ4OCA1LjQzMjA4IDkuNzg3NDYgNS4zMzE3QzkuMzYyMDMgNC40NTA4NSA4LjU3MjMxIDMuODU4NCA3LjUxNzUxIDMuODU4NFoiLz4mI3hhOzxwYXRoIGZpbGw9InVybCgjcGFpbnQyX2xpbmVhcl8zNTE0XzQwMjI1KSIgZD0iTTExLjgyNzcgMTIuNDY1OEMxMS42ODEyIDEyLjYxNDggMTEuNTM2NCAxMi44NDU4IDExLjY4MyAxMi45OTQ4QzExLjgyOTUgMTMuMTQzOCAxMS45OTU3IDEzLjE1NDMgMTIuMTQyMiAxMy4wMDUyTDEzLjI2NyAxMS44NjEyQzEzLjQxMzUgMTEuNzEyMiAxMy40MTM1IDExLjQ3MDggMTMuMjY3IDExLjMyMThMMTIuMTQyMiAxMC4xNzc3QzExLjk5NTcgMTAuMDI4NyAxMS44MjM1IDkuOTY2NjQgMTEuNjc3IDEwLjExNTdDMTEuNDkzOCAxMC4yNTg3IDExLjc0ODkgMTAuNTY4MSAxMS44OTU0IDEwLjcxNzFMMTIuMzE1MyAxMS4yMTg0TDEwLjAwMjkgMTEuMjIwOEwxMC4wMDI4IDExLjUxNzVDMTAuMDAyNiAxMS43MjIyIDEwLjE2NzIgMTEuODg4IDEwLjM3MDEgMTEuODg3OEwxMi4zNTY3IDExLjg4NTdMMTEuODI3NyAxMi40NjU4WiIvPiYjeGE7PHBhdGggZmlsbD0idXJsKCNwYWludDNfbGluZWFyXzM1MTRfNDAyMjUpIiBkPSJNNy4xNTc0NyA5LjI0ODg3QzcuMTU3NDcgOC45MzE1NSA3LjQxMjUxIDguNjc0MzIgNy43MjcxMSA4LjY3NDMyQzcuOTcyOTUgOC42NzQzMiA4LjE5MTA1IDguODMzMzggOC4yNjgwNyA5LjA2ODg0TDguNzM1MjcgMTAuNDk3QzguNzYxMjcgMTAuNTc1NyA4Ljc5MTg0IDEwLjY4NTkgOC44MjcwMSAxMC44Mjc4QzguODYyMTcgMTAuOTY5NyA4Ljg4NTExIDExLjA2MzcgOC44OTU4MSAxMS4xMUM4LjkwODA0IDExLjA2MzcgOC45MzI1IDEwLjk3MTIgOC45NjkxOSAxMC44MzI0QzkuMDA3NDIgMTAuNjkyMSA5LjAzOTUyIDEwLjU4NDEgOS4wNjU1MSAxMC41MDg2TDkuNTI2MTYgOS4wNjkzN0M5LjYwMTUzIDguODMzOSA5LjgxODg2IDguNjc0MzIgMTAuMDY0MiA4LjY3NDMyQzEwLjM3NjQgOC42NzQzMiAxMC42Mjk2IDguOTI5NjIgMTAuNjI5NiA5LjI0NDU2VjExLjIyMDJMMTAuMDAyOSAxMS4yMjA4TDEwLjAwMzUgOS45NTgwOEMxMC4wMDM1IDkuNzkxNTMgMTAuMDA3MyA5LjYzNDI0IDEwLjAxNDkgOS40ODYyMUMxMC4wMjQxIDkuMzM4MTcgMTAuMDIwNCA5LjI3OTMxIDEwLjAyODcgOS4yNTI1OUMxMC4wMjcyIDkuMjU0MTMgMTAuMDExOSA5LjMwODEgOS45ODI4NCA5LjQxNDVDOS45Njc1NSA5LjQ2NTM5IDkuOTM1NDUgOS41NzQ4OCA5Ljg4NjUyIDkuNzQyOTZDOS44MzkxMyA5LjkxMTA0IDkuODAxNjcgMTAuMDM1MiA5Ljc3NDE1IDEwLjExNTRMOS4yNTYzNCAxMS42NzAzQzkuMjAzOTggMTEuODI3NSA5LjA1NzkzIDExLjkzMzQgOC44OTM1MSAxMS45MzM0QzguNzI5MDkgMTEuOTMzNCA4LjU4MzA0IDExLjgyNzUgOC41MzA2OSAxMS42NzAzTDguMDEyODggMTAuMTE1NEM3Ljk4MDc3IDEwLjAyMTMgNy45MzQ5MSA5Ljg3NDAzIDcuODc1MjggOS42NzM1N0M3LjgxNzE4IDkuNDcxNTYgNy43NzY2NyA5LjMzMTIzIDcuNzUzNzMgOS4yNTI1OUw3Ljc1ODMyIDkuMzE5NjdDNy43NTk4NSA5LjM0NDM0IDcuNzY0NDQgOS40MzE0NiA3Ljc3MjA4IDkuNTgxMDRDNy43Nzk3MiA5LjcyOTA4IDcuNzgzNTUgOS44NTQ3NiA3Ljc4MzU1IDkuOTU4MDhWMTEuNjE3N0M3Ljc4MzU1IDExLjc5MjEgNy42NDM0IDExLjkzMzQgNy40NzA1MSAxMS45MzM0QzcuMjk3NjIgMTEuOTMzNCA3LjE1NzQ3IDExLjc5MjEgNy4xNTc0NyAxMS42MTc3VjkuMjQ4ODdaIi8+JiN4YTs8L2c+JiN4YTs8ZGVmcz4mI3hhOzxsaW5lYXJHcmFkaWVudCBncmFkaWVudFVuaXRzPSJ1c2VyU3BhY2VPblVzZSIgeTI9IjE0Ljc0NjgiIHgyPSIxMy42ODQ5IiB5MT0iMi4yNjk5MiIgeDE9IjEuNDQ3OTkiIGlkPSJwYWludDBfbGluZWFyXzM1MTRfNDAyMjUiPiYjeGE7PHN0b3Agc3RvcC1jb2xvcj0id2hpdGUiLz4mI3hhOzxzdG9wIHN0b3AtY29sb3I9IiNFQUVDRUUiIG9mZnNldD0iMSIvPiYjeGE7PC9saW5lYXJHcmFkaWVudD4mI3hhOzxsaW5lYXJHcmFkaWVudCBncmFkaWVudFVuaXRzPSJ1c2VyU3BhY2VPblVzZSIgeTI9IjEwLjMwNzQiIHgyPSI4LjY2MzI3IiB5MT0iNC43NjEzNiIgeDE9IjQuNjQ2MTgiIGlkPSJwYWludDFfbGluZWFyXzM1MTRfNDAyMjUiPiYjeGE7PHN0b3Agc3RvcC1jb2xvcj0iIzAxOTVGRiIvPiYjeGE7PHN0b3Agc3RvcC1jb2xvcj0iIzExNDdFOSIgb2Zmc2V0PSIwLjk5MTAyOCIvPiYjeGE7PC9saW5lYXJHcmFkaWVudD4mI3hhOzxsaW5lYXJHcmFkaWVudCBncmFkaWVudFVuaXRzPSJ1c2VyU3BhY2VPblVzZSIgeTI9IjEzLjQ1NSIgeDI9IjExLjAwOTYiIHkxPSI5LjMyNzE5IiB4MT0iOC4wNzY5NyIgaWQ9InBhaW50Ml9saW5lYXJfMzUxNF80MDIyNSI+JiN4YTs8c3RvcCBzdG9wLWNvbG9yPSIjMTM0OEZGIi8+JiN4YTs8c3RvcCBzdG9wLWNvbG9yPSIjMDYyMzhEIiBvZmZzZXQ9IjEiLz4mI3hhOzwvbGluZWFyR3JhZGllbnQ+JiN4YTs8bGluZWFyR3JhZGllbnQgZ3JhZGllbnRVbml0cz0idXNlclNwYWNlT25Vc2UiIHkyPSIxMy40NTUiIHgyPSIxMS4wMDk2IiB5MT0iOS4zMjcxOSIgeDE9IjguMDc2OTciIGlkPSJwYWludDNfbGluZWFyXzM1MTRfNDAyMjUiPiYjeGE7PHN0b3Agc3RvcC1jb2xvcj0iIzEzNDhGRiIvPiYjeGE7PHN0b3Agc3RvcC1jb2xvcj0iIzA2MjM4RCIgb2Zmc2V0PSIxIi8+JiN4YTs8L2xpbmVhckdyYWRpZW50PiYjeGE7PGNsaXBQYXRoIGlkPSJjbGlwMF8zNTE0XzQwMjI1Ij4mI3hhOzxyZWN0IHRyYW5zZm9ybT0idHJhbnNsYXRlKDMuMzk2OTcgMy43OTkwNykiIGZpbGw9IndoaXRlIiBoZWlnaHQ9IjEwLjAwMDIiIHdpZHRoPSIxMCIvPiYjeGE7PC9jbGlwUGF0aD4mI3hhOzwvZGVmcz4mI3hhOzwvc3ZnPg==;points=[[0,0,0,0,0],[0,0.25,0,0,0],[0,0.5,0,0,0],[0,0.75,0,0,0],[0.25,0,0,0,0],[0.5,0,0,0,0],[0.75,0,0,0,0],[1,0,0,0,0],[1,0.25,0,0,0],[1,0.5,0,0,0],[1,0.75,0,0,0]];container=0;fontStyle=0;fontSize=12;fontColor=#1D2D3E;" vertex="1" parent="1">
          <mxGeometry x="16.620000000000005" y="559" width="50" height="50" as="geometry" />
        </mxCell>
        <mxCell id="vDJPk2kyMGkQtoP7QIK8-36" value="REFLEX PRD" style="shape=image;verticalLabelPosition=bottom;verticalAlign=top;imageAspect=0;aspect=fixed;image=data:image/svg+xml,PHN2ZyB4bWxucz0iaHR0cDovL3d3dy53My5vcmcvMjAwMC9zdmciIGZpbGw9Im5vbmUiIHZpZXdCb3g9IjAgMCAyOCAyOCIgaGVpZ2h0PSIyOCIgd2lkdGg9IjI4Ij4mI3hhOzxnIGNsaXAtcGF0aD0idXJsKCNjbGlwMF84NzBfMjg0KSI+JiN4YTs8cGF0aCBmaWxsPSJ1cmwoI3BhaW50MF9saW5lYXJfODcwXzI4NCkiIGQ9Ik0yMy43ODkyIDEuNzIzM0MyNC45OTE0IDEuNzIzMyAyNS45OTQxIDIuMTI1NzkgMjYuNzk3MyAyLjkyNzI2QzI3LjU5ODggMy43Mjg3MyAyNy45OTk1IDQuNzI5NyAyNy45OTk1IDUuOTMzNjVWMjIuMDY2M0MyOC4wMDggMjIuNjIyNSAyNy45MDYgMjMuMTc0OCAyNy42OTkzIDIzLjY5MTJDMjcuNDkyNiAyNC4yMDc2IDI3LjE4NTQgMjQuNjc3OCAyNi43OTU2IDI1LjA3NDVDMjUuOTk0MSAyNS44NzU5IDI0Ljk5MzEgMjYuMjc2NyAyMy43ODkyIDI2LjI3NjdINC4yMTA4N0MzLjAwODY2IDI2LjI3NjcgMi4wMDU5NSAyNS44NzU5IDEuMjAyNzMgMjUuMDc0NUMwLjgxMzE2NCAyNC42Nzc2IDAuNTA2MjkyIDI0LjIwNzQgMC4yOTk5MTggMjMuNjkxQzAuMDkzNTQzNCAyMy4xNzQ2IC0wLjAwODIyNDU4IDIyLjYyMjQgMC4wMDA1MTkyMzEgMjIuMDY2M1Y1LjkzMzY1QzAuMDAwNTE5MjMxIDQuNzMxNDUgMC40MDMwMDUgMy43Mjg3MyAxLjIwNDQ4IDIuOTI1NTFDMi4wMDQyIDIuMTI1NzkgMy4wMDY5MSAxLjcyMzMgNC4yMDkxMiAxLjcyMzNIMjMuNzg5MlpNMi43ODk5MiA3LjMwMjFIMjUuMjEwMVY1LjkzMzY1QzI1LjIxMDEgNC45ODY5NCAyNC43Mzc2IDQuNTEyNyAyMy43ODkyIDQuNTEyN0g0LjIxMDg3QzMuODI4NiA0LjUwNTcyIDMuNDU3NjUgNC42NDI0OSAzLjE3MTQgNC44OTU5NEMyLjkxNzY2IDUuMTQ5NjggMi43ODk5MiA1LjQ5NjE3IDIuNzg5OTIgNS45MzM2NVY3LjMwMDM1VjcuMzAyMVpNMjUuMjEwMSAxMC4xNDU4SDIuNzg5OTJWMjIuMDY2M0MyLjc4OTkyIDIyLjQ2ODggMi45MTc2NiAyMi43OTYgMy4xNzE0IDIzLjA1MTVDMy40NTc5MSAyMy4zMDQ0IDMuODI4ODQgMjMuNDQwNSA0LjIxMDg3IDIzLjQzM0gyMy43ODkyQzI0LjczNTkgMjMuNDMzIDI1LjIxMDEgMjIuOTc4IDI1LjIxMDEgMjIuMDY2M1YxMC4xNDRWMTAuMTQ1OFoiLz4mI3hhOzwvZz4mI3hhOzxkZWZzPiYjeGE7PGxpbmVhckdyYWRpZW50IGdyYWRpZW50VW5pdHM9InVzZXJTcGFjZU9uVXNlIiB5Mj0iMjYuMjc2NyIgeDI9IjE0IiB5MT0iMS43MjMzIiB4MT0iMTQiIGlkPSJwYWludDBfbGluZWFyXzg3MF8yODQiPiYjeGE7PHN0b3Agc3RvcC1jb2xvcj0iIzVCNzM4QiIvPiYjeGE7PHN0b3Agc3RvcC1jb2xvcj0iIzIyMzU0OCIgb2Zmc2V0PSIxIi8+JiN4YTs8L2xpbmVhckdyYWRpZW50PiYjeGE7PGNsaXBQYXRoIGlkPSJjbGlwMF84NzBfMjg0Ij4mI3hhOzxyZWN0IGZpbGw9IndoaXRlIiBoZWlnaHQ9IjI4IiB3aWR0aD0iMjgiLz4mI3hhOzwvY2xpcFBhdGg+JiN4YTs8L2RlZnM+JiN4YTs8L3N2Zz4=" vertex="1" parent="1">
          <mxGeometry x="-380" y="632" width="70" height="70" as="geometry" />
        </mxCell>
        <mxCell id="vDJPk2kyMGkQtoP7QIK8-37" style="edgeStyle=orthogonalEdgeStyle;rounded=0;orthogonalLoop=1;jettySize=auto;html=1;exitX=1;exitY=0.5;exitDx=0;exitDy=0;entryX=0;entryY=0.5;entryDx=0;entryDy=0;entryPerimeter=0;strokeWidth=2;endArrow=blockThin;endFill=1;strokeColor=#82b366;startArrow=blockThin;startFill=1;fillColor=#d5e8d4;" edge="1" parent="1" source="vDJPk2kyMGkQtoP7QIK8-36" target="vDJPk2kyMGkQtoP7QIK8-33">
          <mxGeometry relative="1" as="geometry">
            <mxPoint x="47.11999999999989" y="635.5894117647063" as="targetPoint" />
          </mxGeometry>
        </mxCell>
        <mxCell id="vDJPk2kyMGkQtoP7QIK8-38" value="&lt;font color=&quot;#475f75&quot; size=&quot;1&quot;&gt;&lt;b style=&quot;&quot;&gt;SFTP&lt;/b&gt;&lt;/font&gt;" style="rounded=1;whiteSpace=wrap;html=1;arcSize=50;strokeColor=#475f75;fillColor=default;strokeWidth=1.5;" vertex="1" parent="1">
          <mxGeometry x="-148" y="661" width="57" height="16" as="geometry" />
        </mxCell>
        <mxCell id="vDJPk2kyMGkQtoP7QIK8-39" value="Inboud / Outbound Delivery&lt;div&gt;Materials&lt;/div&gt;&lt;div&gt;Supplier&lt;/div&gt;&lt;div&gt;Recipient&lt;/div&gt;" style="text;html=1;align=center;verticalAlign=middle;whiteSpace=wrap;rounded=0;" vertex="1" parent="1">
          <mxGeometry x="-301" y="612" width="155" height="49" as="geometry" />
        </mxCell>
        <mxCell id="vDJPk2kyMGkQtoP7QIK8-41" style="edgeStyle=orthogonalEdgeStyle;rounded=0;orthogonalLoop=1;jettySize=auto;html=1;exitX=1;exitY=0.5;exitDx=0;exitDy=0;exitPerimeter=0;entryX=0;entryY=0.5;entryDx=0;entryDy=0;entryPerimeter=0;strokeColor=#9673a6;strokeWidth=2;endArrow=none;endFill=0;fillColor=#e1d5e7;" edge="1" parent="1" source="vDJPk2kyMGkQtoP7QIK8-42" target="i0-r0BhkWRjA8PmNq9u2-51">
          <mxGeometry relative="1" as="geometry">
            <mxPoint x="200" y="580" as="sourcePoint" />
            <mxPoint x="346" y="550" as="targetPoint" />
            <Array as="points">
              <mxPoint x="170" y="417" />
            </Array>
          </mxGeometry>
        </mxCell>
        <mxCell id="vDJPk2kyMGkQtoP7QIK8-43" value="" style="edgeStyle=orthogonalEdgeStyle;rounded=0;orthogonalLoop=1;jettySize=auto;html=1;exitX=1;exitY=0.5;exitDx=0;exitDy=0;exitPerimeter=0;entryX=0;entryY=0.5;entryDx=0;entryDy=0;entryPerimeter=0;strokeColor=#9673a6;strokeWidth=2;endArrow=none;endFill=0;fillColor=#e1d5e7;" edge="1" parent="1" source="vDJPk2kyMGkQtoP7QIK8-33" target="vDJPk2kyMGkQtoP7QIK8-42">
          <mxGeometry relative="1" as="geometry">
            <mxPoint x="68" y="667" as="sourcePoint" />
            <mxPoint x="230" y="417" as="targetPoint" />
            <Array as="points">
              <mxPoint x="170" y="667" />
            </Array>
          </mxGeometry>
        </mxCell>
        <mxCell id="vDJPk2kyMGkQtoP7QIK8-42" value="&lt;p style=&quot;line-height: 114%;&quot;&gt;&lt;font color=&quot;#475f75&quot; size=&quot;1&quot;&gt;&lt;b style=&quot;&quot;&gt;OData&lt;/b&gt;&lt;/font&gt;&lt;/p&gt;" style="rounded=1;whiteSpace=wrap;html=1;arcSize=50;strokeColor=#475f75;fillColor=#f5f6f7;fontColor=#266f3a;strokeWidth=1.5;" vertex="1" parent="1">
          <mxGeometry x="176.13" y="408.5" width="44.155230202578274" height="16" as="geometry" />
        </mxCell>
        <mxCell id="vDJPk2kyMGkQtoP7QIK8-46" style="edgeStyle=orthogonalEdgeStyle;rounded=0;orthogonalLoop=1;jettySize=auto;html=1;exitX=0;exitY=0.25;exitDx=0;exitDy=0;entryX=1;entryY=0.5;entryDx=0;entryDy=0;fillColor=#fff2cc;strokeColor=#d6b656;strokeWidth=2;endArrow=none;endFill=0;" edge="1" parent="1" target="vDJPk2kyMGkQtoP7QIK8-44" source="i0-r0BhkWRjA8PmNq9u2-27">
          <mxGeometry relative="1" as="geometry">
            <mxPoint x="573.14" y="365" as="sourcePoint" />
            <mxPoint x="250.14" y="360" as="targetPoint" />
            <Array as="points">
              <mxPoint x="573" y="365" />
              <mxPoint x="362" y="365" />
              <mxPoint x="362" y="368" />
            </Array>
          </mxGeometry>
        </mxCell>
      </root>
    </mxGraphModel>
  </diagram>
</mxfile>
